<svg width="419" height="660" viewBox="0 0 419 660" fill="none" xmlns="http://www.w3.org/2000/svg">
<g clip-path="url(#clip0_0_1)">
<g filter="url(#filter0_d_0_1)">
<path d="M113.776 80.57H305.01C323.35 80.57 338.218 94.805 338.218 112.365V547.635C338.218 565.195 323.351 579.431 305.01 579.431H113.776C95.436 579.431 80.568 565.195 80.568 547.635V112.365C80.568 94.805 95.436 80.569 113.776 80.569V80.57Z" fill="black"/>
</g>
<path d="M113.776 80.57H305.01C323.35 80.57 338.218 94.805 338.218 112.365V547.635C338.218 565.195 323.351 579.431 305.01 579.431H113.776C95.436 579.431 80.568 565.195 80.568 547.635V112.365C80.568 94.805 95.436 80.569 113.776 80.569V80.57Z" fill="#213648"/>
<path opacity="0.596" fill-rule="evenodd" clip-rule="evenodd" d="M305.748 80H112.924C103.92 80.549 95.618 84.657 88.015 92.324C92.905 88.056 101.625 82.344 113.155 82.344H305.517C317.047 82.344 325.767 88.056 330.657 92.324C323.054 84.657 314.751 80.549 305.748 80Z" fill="url(#paint0_linear_0_1)" fill-opacity="0.65"/>
<path opacity="0.75" fill-rule="evenodd" clip-rule="evenodd" d="M332.999 542.67V114.983C332.999 103.507 328.782 99.265 326.266 96.541C323.75 93.818 323.643 92.428 327.258 94.485C330.873 96.541 338.103 102.532 338.103 114.983V542.67C338.103 555.121 330.873 561.111 327.258 563.168C323.643 565.224 323.75 563.835 326.266 561.111C328.782 558.387 332.999 554.145 332.999 542.67V542.67Z" fill="url(#paint1_linear_0_1)"/>
<path opacity="0.75" fill-rule="evenodd" clip-rule="evenodd" d="M85.672 542.67V114.983C85.672 103.507 89.889 99.265 92.405 96.541C94.921 93.818 95.028 92.428 91.413 94.485C87.798 96.541 80.568 102.532 80.568 114.983V542.67C80.568 555.121 87.798 561.111 91.413 563.168C95.028 565.224 94.921 563.835 92.405 561.111C89.889 558.387 85.672 554.145 85.672 542.67Z" fill="url(#paint2_linear_0_1)"/>
<path fill-rule="evenodd" clip-rule="evenodd" d="M80 181.557H80.965C81.4954 181.557 82.0041 181.768 82.3792 182.143C82.7543 182.518 82.965 183.027 82.965 183.557V243.907C82.965 244.437 82.7543 244.946 82.3792 245.321C82.0041 245.696 81.4954 245.907 80.965 245.907H80C79.4696 245.907 78.9609 245.696 78.5858 245.321C78.2107 244.946 78 244.437 78 243.907V183.557C78 183.027 78.2107 182.518 78.5858 182.143C78.9609 181.768 79.4696 181.557 80 181.557V181.557ZM337.535 234.044H338.5C339.03 234.044 339.539 234.255 339.914 234.63C340.289 235.005 340.5 235.514 340.5 236.044V278.994C340.5 279.524 340.289 280.033 339.914 280.408C339.539 280.783 339.03 280.994 338.5 280.994H337.535C337.005 280.994 336.496 280.783 336.121 280.408C335.746 280.033 335.535 279.524 335.535 278.994V236.044C335.535 235.514 335.746 235.005 336.121 234.63C336.496 234.255 337.005 234.044 337.535 234.044V234.044Z" fill="#2E423C"/>
<path d="M186.676 92.444H112.27C101.164 92.444 93.074 100.007 93.074 109.885V532.275C93.074 545.155 105.576 556.567 119.714 556.567H299.046C312.664 556.567 325.686 545.067 325.686 532.275V111.027C325.686 99.187 316.896 92.514 306.49 92.444H230.904C230.617 92.491 225.425 94.626 223.231 100.007C221.036 105.389 216.621 109.679 211.786 109.679H206.171C203.873 109.679 197.823 107.449 194.76 100.007C191.697 92.565 186.962 92.491 186.676 92.444Z" fill="white"/>
<mask id="mask0_0_1" style="mask-type:alpha" maskUnits="userSpaceOnUse" x="93" y="92" width="233" height="465">
<path d="M186.676 92.444H112.27C101.164 92.444 93.074 100.007 93.074 109.885V532.275C93.074 545.155 105.576 556.567 119.714 556.567H299.046C312.664 556.567 325.686 545.067 325.686 532.275V111.027C325.686 99.187 316.896 92.514 306.49 92.444H230.904C230.617 92.491 225.425 94.626 223.231 100.007C221.036 105.389 216.621 109.679 211.786 109.679H206.171C203.873 109.679 197.823 107.449 194.76 100.007C191.697 92.565 186.962 92.491 186.676 92.444Z" fill="url(#paint3_linear_0_1)"/>
</mask>
<g mask="url(#mask0_0_1)">
<path fill-rule="evenodd" clip-rule="evenodd" d="M93 92.444H326V557.444H93V92.444Z" fill="url(#paint4_linear_0_1)"/>
</g>
<mask id="mask1_0_1" style="mask-type:alpha" maskUnits="userSpaceOnUse" x="93" y="92" width="233" height="465">
<path d="M186.676 92.444H112.27C101.164 92.444 93.074 100.007 93.074 109.885V532.275C93.074 545.155 105.576 556.567 119.714 556.567H299.046C312.664 556.567 325.686 545.067 325.686 532.275V111.027C325.686 99.187 316.896 92.514 306.49 92.444H230.904C230.617 92.491 225.425 94.626 223.231 100.007C221.036 105.389 216.621 109.679 211.786 109.679H206.171C203.873 109.679 197.823 107.449 194.76 100.007C191.697 92.565 186.962 92.491 186.676 92.444Z" fill="white"/>
</mask>
<g mask="url(#mask1_0_1)">
<path d="M179.011 195.727V219H174.091V200.398H173.955L168.625 203.739V199.375L174.386 195.727H179.011ZM184.543 219V215.455L192.827 207.784C193.531 207.102 194.122 206.489 194.599 205.943C195.084 205.398 195.452 204.864 195.702 204.341C195.952 203.811 196.077 203.239 196.077 202.625C196.077 201.943 195.921 201.356 195.611 200.864C195.3 200.364 194.876 199.981 194.338 199.716C193.8 199.443 193.19 199.307 192.509 199.307C191.796 199.307 191.175 199.451 190.645 199.739C190.115 200.027 189.706 200.439 189.418 200.977C189.13 201.515 188.986 202.155 188.986 202.898H184.315C184.315 201.375 184.66 200.053 185.349 198.932C186.039 197.811 187.005 196.943 188.247 196.33C189.49 195.716 190.921 195.409 192.543 195.409C194.209 195.409 195.66 195.705 196.895 196.295C198.137 196.879 199.103 197.689 199.793 198.727C200.482 199.765 200.827 200.955 200.827 202.295C200.827 203.174 200.652 204.042 200.304 204.898C199.963 205.754 199.353 206.705 198.474 207.75C197.596 208.788 196.357 210.034 194.759 211.489L191.361 214.818V214.977H201.134V219H184.543ZM207.574 216.295C206.824 216.295 206.18 216.03 205.642 215.5C205.112 214.97 204.847 214.326 204.847 213.568C204.847 212.826 205.112 212.189 205.642 211.659C206.18 211.129 206.824 210.864 207.574 210.864C208.301 210.864 208.938 211.129 209.483 211.659C210.028 212.189 210.301 212.826 210.301 213.568C210.301 214.068 210.172 214.527 209.915 214.943C209.665 215.352 209.335 215.682 208.926 215.932C208.517 216.174 208.066 216.295 207.574 216.295ZM207.574 204.875C206.824 204.875 206.18 204.61 205.642 204.08C205.112 203.549 204.847 202.905 204.847 202.148C204.847 201.405 205.112 200.773 205.642 200.25C206.18 199.72 206.824 199.455 207.574 199.455C208.301 199.455 208.938 199.72 209.483 200.25C210.028 200.773 210.301 201.405 210.301 202.148C210.301 202.655 210.172 203.117 209.915 203.534C209.665 203.943 209.335 204.269 208.926 204.511C208.517 204.754 208.066 204.875 207.574 204.875ZM213.878 214.909V211.034L223.594 195.727H226.935V201.091H224.957L218.832 210.784V210.966H232.639V214.909H213.878ZM225.048 219V213.727L225.139 212.011V195.727H229.753V219H225.048ZM244.338 195.409C245.535 195.409 246.687 195.61 247.793 196.011C248.906 196.413 249.899 197.053 250.77 197.932C251.649 198.811 252.342 199.977 252.849 201.432C253.365 202.879 253.626 204.655 253.634 206.761C253.634 208.739 253.41 210.504 252.963 212.057C252.524 213.602 251.891 214.917 251.065 216C250.24 217.083 249.243 217.909 248.077 218.477C246.91 219.038 245.607 219.318 244.168 219.318C242.615 219.318 241.243 219.019 240.054 218.42C238.865 217.814 237.906 216.992 237.179 215.955C236.459 214.909 236.024 213.735 235.872 212.432H240.724C240.914 213.28 241.312 213.939 241.918 214.409C242.524 214.871 243.274 215.102 244.168 215.102C245.683 215.102 246.834 214.443 247.622 213.125C248.41 211.799 248.808 209.985 248.815 207.682H248.656C248.308 208.364 247.838 208.951 247.247 209.443C246.656 209.928 245.978 210.303 245.213 210.568C244.456 210.833 243.649 210.966 242.793 210.966C241.421 210.966 240.198 210.644 239.122 210C238.046 209.356 237.198 208.47 236.577 207.341C235.956 206.212 235.645 204.924 235.645 203.477C235.637 201.917 235.997 200.527 236.724 199.307C237.452 198.087 238.467 197.133 239.77 196.443C241.081 195.746 242.603 195.402 244.338 195.409ZM244.372 199.273C243.607 199.273 242.925 199.455 242.327 199.818C241.736 200.182 241.266 200.67 240.918 201.284C240.577 201.898 240.41 202.583 240.418 203.341C240.418 204.106 240.584 204.795 240.918 205.409C241.259 206.015 241.721 206.5 242.304 206.864C242.895 207.22 243.569 207.398 244.327 207.398C244.895 207.398 245.421 207.292 245.906 207.08C246.391 206.867 246.812 206.576 247.168 206.205C247.531 205.826 247.815 205.39 248.02 204.898C248.224 204.405 248.327 203.883 248.327 203.33C248.319 202.595 248.145 201.92 247.804 201.307C247.463 200.693 246.993 200.201 246.395 199.83C245.796 199.458 245.122 199.273 244.372 199.273Z" fill="white"/>
</g>
<g filter="url(#filter1_d_0_1)">
<path d="M313 247H105C102.239 247 100 249.239 100 252V329C100 331.761 102.239 334 105 334H313C315.761 334 318 331.761 318 329V252C318 249.239 315.761 247 313 247Z" fill="black"/>
</g>
<path d="M313 247H105C102.239 247 100 249.239 100 252V329C100 331.761 102.239 334 105 334H313C315.761 334 318 331.761 318 329V252C318 249.239 315.761 247 313 247Z" fill="#FBFCFE"/>
<path d="M116.632 272V264.727H119.501C120.053 264.727 120.523 264.833 120.911 265.043C121.299 265.252 121.595 265.542 121.799 265.913C122.005 266.283 122.108 266.709 122.108 267.192C122.108 267.675 122.004 268.101 121.795 268.47C121.587 268.839 121.285 269.127 120.89 269.333C120.497 269.539 120.021 269.642 119.462 269.642H117.634V268.41H119.214C119.51 268.41 119.754 268.359 119.945 268.257C120.139 268.153 120.284 268.01 120.379 267.827C120.476 267.643 120.524 267.431 120.524 267.192C120.524 266.95 120.476 266.74 120.379 266.56C120.284 266.377 120.139 266.237 119.945 266.137C119.751 266.035 119.505 265.984 119.207 265.984H118.17V272H116.632ZM124.487 272.103C124.139 272.103 123.829 272.043 123.557 271.922C123.285 271.799 123.069 271.618 122.911 271.379C122.754 271.137 122.676 270.836 122.676 270.477C122.676 270.174 122.732 269.919 122.843 269.713C122.954 269.507 123.106 269.341 123.298 269.216C123.489 269.09 123.707 268.996 123.951 268.932C124.197 268.868 124.455 268.823 124.725 268.797C125.042 268.764 125.298 268.733 125.492 268.705C125.686 268.674 125.827 268.629 125.915 268.57C126.002 268.51 126.046 268.423 126.046 268.307V268.286C126.046 268.061 125.975 267.887 125.833 267.763C125.693 267.64 125.495 267.579 125.237 267.579C124.964 267.579 124.748 267.639 124.587 267.76C124.426 267.878 124.319 268.027 124.267 268.207L122.868 268.094C122.939 267.762 123.079 267.476 123.287 267.234C123.495 266.991 123.764 266.804 124.093 266.673C124.424 266.541 124.808 266.474 125.244 266.474C125.547 266.474 125.837 266.51 126.114 266.581C126.393 266.652 126.64 266.762 126.856 266.911C127.074 267.06 127.245 267.252 127.371 267.487C127.496 267.719 127.559 267.997 127.559 268.321V272H126.124V271.244H126.082C125.994 271.414 125.877 271.564 125.73 271.695C125.583 271.822 125.407 271.923 125.201 271.996C124.995 272.067 124.757 272.103 124.487 272.103ZM124.92 271.059C125.143 271.059 125.339 271.015 125.51 270.928C125.68 270.838 125.814 270.717 125.911 270.565C126.008 270.414 126.057 270.242 126.057 270.05V269.472C126.009 269.502 125.944 269.531 125.862 269.557C125.781 269.58 125.69 269.603 125.588 269.624C125.486 269.643 125.384 269.661 125.283 269.678C125.181 269.692 125.089 269.705 125.006 269.717C124.828 269.743 124.673 269.784 124.54 269.841C124.408 269.898 124.305 269.975 124.232 270.072C124.158 270.166 124.121 270.285 124.121 270.427C124.121 270.633 124.196 270.79 124.345 270.899C124.497 271.006 124.688 271.059 124.92 271.059ZM129.471 274.045C129.279 274.045 129.1 274.03 128.931 273.999C128.766 273.971 128.628 273.934 128.52 273.889L128.86 272.76C129.038 272.814 129.198 272.844 129.34 272.849C129.484 272.853 129.609 272.82 129.713 272.749C129.819 272.678 129.906 272.558 129.972 272.387L130.061 272.156L128.104 266.545H129.695L130.824 270.551H130.881L132.021 266.545H133.623L131.502 272.589C131.401 272.883 131.262 273.139 131.087 273.357C130.914 273.577 130.695 273.746 130.43 273.864C130.165 273.985 129.845 274.045 129.471 274.045ZM134.995 272H133.347L135.858 264.727H137.839L140.347 272H138.699L136.877 266.389H136.82L134.995 272ZM134.892 269.141H138.784V270.342H134.892V269.141ZM141.222 272V264.727H144.091C144.643 264.727 145.113 264.833 145.501 265.043C145.889 265.252 146.185 265.542 146.389 265.913C146.595 266.283 146.698 266.709 146.698 267.192C146.698 267.675 146.594 268.101 146.385 268.47C146.177 268.839 145.875 269.127 145.48 269.333C145.087 269.539 144.611 269.642 144.052 269.642H142.223V268.41H143.804C144.1 268.41 144.343 268.359 144.535 268.257C144.729 268.153 144.874 268.01 144.968 267.827C145.065 267.643 145.114 267.431 145.114 267.192C145.114 266.95 145.065 266.74 144.968 266.56C144.874 266.377 144.729 266.237 144.535 266.137C144.341 266.035 144.095 265.984 143.797 265.984H142.76V272H141.222ZM149.234 264.727V272H147.697V264.727H149.234Z" fill="#BA4270"/>
<path d="M263.715 264.727H264.595V269.926C264.595 270.39 264.51 270.784 264.34 271.109C264.169 271.433 263.929 271.679 263.619 271.847C263.309 272.015 262.943 272.099 262.522 272.099C262.124 272.099 261.77 272.027 261.46 271.883C261.15 271.736 260.906 271.528 260.728 271.258C260.551 270.988 260.462 270.667 260.462 270.295H261.328C261.328 270.501 261.379 270.681 261.481 270.835C261.585 270.987 261.727 271.105 261.907 271.19C262.087 271.276 262.292 271.318 262.522 271.318C262.775 271.318 262.99 271.265 263.168 271.158C263.345 271.052 263.48 270.896 263.573 270.69C263.667 270.481 263.715 270.227 263.715 269.926V264.727ZM269.684 269.77V266.545H270.522V272H269.684V271.077H269.627C269.5 271.354 269.301 271.589 269.031 271.783C268.761 271.975 268.42 272.071 268.008 272.071C267.667 272.071 267.364 271.996 267.099 271.847C266.834 271.696 266.626 271.469 266.474 271.165C266.322 270.86 266.247 270.475 266.247 270.011V266.545H267.085V269.955C267.085 270.352 267.196 270.67 267.419 270.906C267.644 271.143 267.93 271.261 268.278 271.261C268.486 271.261 268.698 271.208 268.914 271.102C269.131 270.995 269.314 270.832 269.461 270.612C269.61 270.391 269.684 270.111 269.684 269.77ZM275.921 267.767L275.168 267.98C275.121 267.855 275.051 267.733 274.959 267.614C274.869 267.494 274.745 267.394 274.589 267.316C274.433 267.238 274.233 267.199 273.989 267.199C273.655 267.199 273.377 267.276 273.155 267.43C272.934 267.581 272.824 267.774 272.824 268.009C272.824 268.217 272.9 268.381 273.052 268.502C273.203 268.623 273.44 268.723 273.762 268.804L274.571 269.003C275.059 269.121 275.423 269.302 275.662 269.546C275.901 269.788 276.02 270.099 276.02 270.48C276.02 270.793 275.93 271.072 275.75 271.318C275.573 271.564 275.324 271.759 275.005 271.901C274.685 272.043 274.313 272.114 273.89 272.114C273.333 272.114 272.873 271.993 272.508 271.751C272.144 271.51 271.913 271.157 271.816 270.693L272.611 270.494C272.687 270.788 272.83 271.008 273.041 271.155C273.254 271.302 273.532 271.375 273.875 271.375C274.266 271.375 274.576 271.292 274.806 271.126C275.038 270.958 275.154 270.757 275.154 270.523C275.154 270.333 275.088 270.175 274.955 270.047C274.822 269.917 274.619 269.82 274.344 269.756L273.435 269.543C272.936 269.424 272.569 269.241 272.334 268.992C272.102 268.741 271.986 268.428 271.986 268.051C271.986 267.743 272.073 267.471 272.245 267.234C272.421 266.998 272.659 266.812 272.959 266.677C273.262 266.542 273.606 266.474 273.989 266.474C274.529 266.474 274.953 266.593 275.26 266.83C275.571 267.066 275.791 267.379 275.921 267.767ZM279.654 266.545V267.256H276.827V266.545H279.654ZM277.651 265.239H278.489V270.438C278.489 270.674 278.524 270.852 278.592 270.97C278.663 271.086 278.753 271.164 278.862 271.205C278.973 271.242 279.091 271.261 279.214 271.261C279.306 271.261 279.382 271.257 279.441 271.247C279.5 271.235 279.548 271.226 279.583 271.219L279.753 271.972C279.697 271.993 279.617 272.014 279.516 272.036C279.414 272.059 279.285 272.071 279.128 272.071C278.892 272.071 278.66 272.02 278.432 271.918C278.208 271.817 278.021 271.661 277.871 271.453C277.725 271.245 277.651 270.982 277.651 270.665V265.239ZM289.608 264.727V272H288.756L284.793 266.29H284.722V272H283.841V264.727H284.693L288.67 270.452H288.741V264.727H289.608ZM293.472 272.114C292.98 272.114 292.548 271.996 292.176 271.762C291.807 271.528 291.518 271.2 291.31 270.778C291.104 270.357 291.001 269.865 291.001 269.301C291.001 268.733 291.104 268.237 291.31 267.813C291.518 267.389 291.807 267.06 292.176 266.826C292.548 266.592 292.98 266.474 293.472 266.474C293.965 266.474 294.396 266.592 294.765 266.826C295.137 267.06 295.426 267.389 295.632 267.813C295.84 268.237 295.944 268.733 295.944 269.301C295.944 269.865 295.84 270.357 295.632 270.778C295.426 271.2 295.137 271.528 294.765 271.762C294.396 271.996 293.965 272.114 293.472 272.114ZM293.472 271.361C293.846 271.361 294.154 271.265 294.396 271.073C294.637 270.881 294.816 270.629 294.932 270.317C295.048 270.004 295.106 269.666 295.106 269.301C295.106 268.937 295.048 268.597 294.932 268.282C294.816 267.967 294.637 267.713 294.396 267.518C294.154 267.324 293.846 267.227 293.472 267.227C293.098 267.227 292.791 267.324 292.549 267.518C292.308 267.713 292.129 267.967 292.013 268.282C291.897 268.597 291.839 268.937 291.839 269.301C291.839 269.666 291.897 270.004 292.013 270.317C292.129 270.629 292.308 270.881 292.549 271.073C292.791 271.265 293.098 271.361 293.472 271.361ZM298.274 272L296.612 266.545H297.492L298.671 270.722H298.728L299.893 266.545H300.788L301.938 270.707H301.995L303.174 266.545H304.055L302.393 272H301.569L300.376 267.81H300.291L299.097 272H298.274Z" fill="#36536B"/>
<path d="M116.483 280.509V279.727H121.938V280.509H119.651V287H118.77V280.509H116.483ZM124.021 283.719V287H123.183V279.727H124.021V282.398H124.092C124.22 282.116 124.412 281.892 124.667 281.727C124.925 281.558 125.269 281.474 125.697 281.474C126.069 281.474 126.394 281.549 126.674 281.698C126.953 281.845 127.17 282.071 127.324 282.376C127.48 282.679 127.558 283.065 127.558 283.534V287H126.72V283.591C126.72 283.158 126.608 282.823 126.383 282.586C126.16 282.347 125.851 282.227 125.456 282.227C125.181 282.227 124.935 282.285 124.717 282.401C124.502 282.517 124.331 282.687 124.206 282.909C124.083 283.132 124.021 283.402 124.021 283.719ZM131.378 287.114C130.853 287.114 130.399 286.998 130.018 286.766C129.639 286.531 129.347 286.205 129.141 285.786C128.937 285.364 128.836 284.874 128.836 284.315C128.836 283.757 128.937 283.264 129.141 282.838C129.347 282.41 129.633 282.076 130 281.837C130.37 281.595 130.801 281.474 131.293 281.474C131.577 281.474 131.858 281.522 132.135 281.616C132.412 281.711 132.664 281.865 132.891 282.078C133.118 282.289 133.299 282.568 133.434 282.916C133.569 283.264 133.637 283.693 133.637 284.202V284.557H129.432V283.832H132.784C132.784 283.525 132.723 283.25 132.6 283.009C132.479 282.767 132.306 282.576 132.081 282.437C131.859 282.297 131.596 282.227 131.293 282.227C130.959 282.227 130.67 282.31 130.426 282.476C130.185 282.639 129.999 282.852 129.869 283.115C129.739 283.378 129.674 283.66 129.674 283.96V284.443C129.674 284.855 129.745 285.204 129.887 285.491C130.031 285.775 130.231 285.991 130.487 286.141C130.743 286.287 131.04 286.361 131.378 286.361C131.598 286.361 131.797 286.33 131.975 286.268C132.155 286.205 132.31 286.11 132.44 285.984C132.57 285.857 132.671 285.698 132.742 285.509L133.551 285.736C133.466 286.01 133.323 286.252 133.122 286.46C132.921 286.666 132.672 286.827 132.376 286.943C132.08 287.057 131.748 287.114 131.378 287.114ZM137.724 289.045V281.545H138.534V282.412H138.633C138.695 282.317 138.78 282.196 138.889 282.05C139 281.901 139.159 281.768 139.365 281.652C139.573 281.534 139.855 281.474 140.21 281.474C140.669 281.474 141.074 281.589 141.424 281.819C141.775 282.049 142.048 282.374 142.245 282.795C142.441 283.217 142.539 283.714 142.539 284.287C142.539 284.865 142.441 285.365 142.245 285.789C142.048 286.21 141.776 286.537 141.428 286.769C141.08 286.999 140.679 287.114 140.224 287.114C139.874 287.114 139.593 287.056 139.382 286.94C139.172 286.821 139.01 286.687 138.896 286.538C138.782 286.387 138.695 286.261 138.633 286.162H138.562V289.045H137.724ZM138.548 284.273C138.548 284.685 138.608 285.048 138.729 285.363C138.85 285.675 139.026 285.92 139.258 286.098C139.49 286.273 139.774 286.361 140.11 286.361C140.461 286.361 140.753 286.268 140.988 286.084C141.224 285.897 141.402 285.646 141.52 285.331C141.641 285.014 141.701 284.661 141.701 284.273C141.701 283.889 141.642 283.544 141.524 283.236C141.408 282.926 141.231 282.681 140.995 282.501C140.76 282.318 140.466 282.227 140.11 282.227C139.77 282.227 139.483 282.314 139.251 282.487C139.019 282.657 138.844 282.896 138.725 283.204C138.607 283.509 138.548 283.866 138.548 284.273ZM145.423 287.128C145.077 287.128 144.764 287.063 144.482 286.933C144.2 286.8 143.976 286.609 143.811 286.361C143.645 286.11 143.562 285.807 143.562 285.452C143.562 285.139 143.624 284.886 143.747 284.692C143.87 284.495 144.034 284.341 144.24 284.23C144.446 284.119 144.674 284.036 144.922 283.982C145.173 283.925 145.425 283.88 145.679 283.847C146.01 283.804 146.279 283.772 146.485 283.751C146.693 283.727 146.845 283.688 146.939 283.634C147.036 283.579 147.085 283.484 147.085 283.349V283.321C147.085 282.971 146.989 282.698 146.797 282.504C146.608 282.31 146.32 282.213 145.934 282.213C145.534 282.213 145.221 282.301 144.993 282.476C144.766 282.651 144.606 282.838 144.514 283.037L143.718 282.753C143.86 282.421 144.05 282.163 144.287 281.979C144.526 281.792 144.786 281.661 145.068 281.588C145.352 281.512 145.631 281.474 145.906 281.474C146.081 281.474 146.282 281.496 146.51 281.538C146.739 281.579 146.961 281.663 147.174 281.79C147.389 281.918 147.568 282.111 147.71 282.369C147.852 282.627 147.923 282.973 147.923 283.406V287H147.085V286.261H147.042C146.985 286.38 146.891 286.506 146.758 286.641C146.626 286.776 146.449 286.891 146.229 286.986C146.009 287.08 145.74 287.128 145.423 287.128ZM145.551 286.375C145.882 286.375 146.162 286.31 146.389 286.18C146.618 286.049 146.791 285.881 146.907 285.675C147.026 285.469 147.085 285.253 147.085 285.026V284.259C147.049 284.301 146.971 284.34 146.85 284.376C146.732 284.409 146.595 284.438 146.439 284.464C146.285 284.488 146.134 284.509 145.988 284.528C145.843 284.545 145.726 284.559 145.636 284.571C145.418 284.599 145.215 284.646 145.025 284.71C144.838 284.771 144.687 284.865 144.571 284.99C144.457 285.113 144.4 285.281 144.4 285.494C144.4 285.786 144.508 286.006 144.723 286.155C144.941 286.302 145.217 286.375 145.551 286.375ZM149.797 289.045C149.655 289.045 149.528 289.034 149.417 289.01C149.306 288.989 149.229 288.967 149.186 288.946L149.399 288.207C149.603 288.259 149.783 288.278 149.939 288.264C150.095 288.25 150.234 288.18 150.355 288.055C150.478 287.932 150.59 287.732 150.692 287.455L150.848 287.028L148.831 281.545H149.74L151.246 285.892H151.303L152.808 281.545H153.718L151.402 287.795C151.298 288.077 151.169 288.31 151.015 288.495C150.861 288.682 150.682 288.821 150.479 288.911C150.278 289 150.05 289.045 149.797 289.045ZM154.824 287V281.545H155.633V282.398H155.704C155.818 282.107 156.001 281.88 156.255 281.719C156.508 281.556 156.812 281.474 157.167 281.474C157.527 281.474 157.827 281.556 158.066 281.719C158.307 281.88 158.496 282.107 158.631 282.398H158.687C158.827 282.116 159.037 281.892 159.316 281.727C159.595 281.558 159.93 281.474 160.321 281.474C160.809 281.474 161.207 281.627 161.518 281.933C161.828 282.236 161.983 282.708 161.983 283.349V287H161.145V283.349C161.145 282.947 161.035 282.659 160.814 282.487C160.594 282.314 160.335 282.227 160.037 282.227C159.653 282.227 159.356 282.343 159.145 282.575C158.935 282.805 158.829 283.096 158.829 283.449V287H157.977V283.264C157.977 282.954 157.876 282.704 157.675 282.515C157.474 282.323 157.215 282.227 156.898 282.227C156.68 282.227 156.476 282.285 156.287 282.401C156.1 282.517 155.948 282.678 155.832 282.884C155.719 283.088 155.662 283.323 155.662 283.591V287H154.824ZM165.802 287.114C165.276 287.114 164.823 286.998 164.442 286.766C164.063 286.531 163.771 286.205 163.565 285.786C163.361 285.364 163.259 284.874 163.259 284.315C163.259 283.757 163.361 283.264 163.565 282.838C163.771 282.41 164.057 282.076 164.424 281.837C164.794 281.595 165.224 281.474 165.717 281.474C166.001 281.474 166.281 281.522 166.558 281.616C166.835 281.711 167.088 281.865 167.315 282.078C167.542 282.289 167.723 282.568 167.858 282.916C167.993 283.264 168.061 283.693 168.061 284.202V284.557H163.856V283.832H167.208C167.208 283.525 167.147 283.25 167.024 283.009C166.903 282.767 166.73 282.576 166.505 282.437C166.283 282.297 166.02 282.227 165.717 282.227C165.383 282.227 165.094 282.31 164.85 282.476C164.609 282.639 164.423 282.852 164.293 283.115C164.163 283.378 164.097 283.66 164.097 283.96V284.443C164.097 284.855 164.169 285.204 164.311 285.491C164.455 285.775 164.655 285.991 164.911 286.141C165.166 286.287 165.463 286.361 165.802 286.361C166.022 286.361 166.221 286.33 166.399 286.268C166.579 286.205 166.734 286.11 166.864 285.984C166.994 285.857 167.095 285.698 167.166 285.509L167.975 285.736C167.89 286.01 167.747 286.252 167.546 286.46C167.344 286.666 167.096 286.827 166.8 286.943C166.504 287.057 166.171 287.114 165.802 287.114ZM170.173 283.719V287H169.335V281.545H170.145V282.398H170.216C170.344 282.121 170.538 281.898 170.798 281.73C171.059 281.56 171.395 281.474 171.807 281.474C172.176 281.474 172.499 281.55 172.776 281.702C173.053 281.851 173.269 282.078 173.423 282.384C173.577 282.687 173.654 283.07 173.654 283.534V287H172.816V283.591C172.816 283.162 172.704 282.829 172.482 282.589C172.259 282.348 171.954 282.227 171.566 282.227C171.298 282.227 171.059 282.285 170.848 282.401C170.64 282.517 170.475 282.687 170.355 282.909C170.234 283.132 170.173 283.402 170.173 283.719ZM177.557 281.545V282.256H174.73V281.545H177.557ZM175.554 280.239H176.392V285.438C176.392 285.674 176.427 285.852 176.495 285.97C176.566 286.086 176.656 286.164 176.765 286.205C176.877 286.242 176.994 286.261 177.117 286.261C177.209 286.261 177.285 286.257 177.344 286.247C177.403 286.235 177.451 286.226 177.486 286.219L177.657 286.972C177.6 286.993 177.52 287.014 177.419 287.036C177.317 287.059 177.188 287.071 177.032 287.071C176.795 287.071 176.563 287.02 176.336 286.918C176.111 286.817 175.924 286.661 175.775 286.453C175.628 286.245 175.554 285.982 175.554 285.665V280.239ZM182.468 283.719V287H181.63V279.727H182.468V282.398H182.539C182.667 282.116 182.859 281.892 183.115 281.727C183.373 281.558 183.716 281.474 184.145 281.474C184.516 281.474 184.842 281.549 185.121 281.698C185.4 281.845 185.617 282.071 185.771 282.376C185.927 282.679 186.005 283.065 186.005 283.534V287H185.167V283.591C185.167 283.158 185.055 282.823 184.83 282.586C184.607 282.347 184.298 282.227 183.903 282.227C183.628 282.227 183.382 282.285 183.164 282.401C182.949 282.517 182.779 282.687 182.653 282.909C182.53 283.132 182.468 283.402 182.468 283.719ZM189.144 287.128C188.798 287.128 188.484 287.063 188.203 286.933C187.921 286.8 187.697 286.609 187.531 286.361C187.366 286.11 187.283 285.807 187.283 285.452C187.283 285.139 187.344 284.886 187.468 284.692C187.591 284.495 187.755 284.341 187.961 284.23C188.167 284.119 188.394 284.036 188.643 283.982C188.894 283.925 189.146 283.88 189.399 283.847C189.731 283.804 189.999 283.772 190.205 283.751C190.414 283.727 190.565 283.688 190.66 283.634C190.757 283.579 190.806 283.484 190.806 283.349V283.321C190.806 282.971 190.71 282.698 190.518 282.504C190.329 282.31 190.041 282.213 189.655 282.213C189.255 282.213 188.941 282.301 188.714 282.476C188.487 282.651 188.327 282.838 188.235 283.037L187.439 282.753C187.581 282.421 187.771 282.163 188.007 281.979C188.246 281.792 188.507 281.661 188.789 281.588C189.073 281.512 189.352 281.474 189.627 281.474C189.802 281.474 190.003 281.496 190.23 281.538C190.46 281.579 190.681 281.663 190.894 281.79C191.11 281.918 191.289 282.111 191.431 282.369C191.573 282.627 191.644 282.973 191.644 283.406V287H190.806V286.261H190.763C190.706 286.38 190.611 286.506 190.479 286.641C190.346 286.776 190.17 286.891 189.95 286.986C189.73 287.08 189.461 287.128 189.144 287.128ZM189.271 286.375C189.603 286.375 189.882 286.31 190.11 286.18C190.339 286.049 190.512 285.881 190.628 285.675C190.746 285.469 190.806 285.253 190.806 285.026V284.259C190.77 284.301 190.692 284.34 190.571 284.376C190.453 284.409 190.316 284.438 190.159 284.464C190.005 284.488 189.855 284.509 189.708 284.528C189.564 284.545 189.447 284.559 189.357 284.571C189.139 284.599 188.935 284.646 188.746 284.71C188.559 284.771 188.407 284.865 188.291 284.99C188.178 285.113 188.121 285.281 188.121 285.494C188.121 285.786 188.229 286.006 188.444 286.155C188.662 286.302 188.938 286.375 189.271 286.375ZM197.037 282.767L196.284 282.98C196.237 282.855 196.167 282.733 196.075 282.614C195.985 282.494 195.862 282.394 195.705 282.316C195.549 282.238 195.349 282.199 195.105 282.199C194.771 282.199 194.493 282.276 194.271 282.43C194.05 282.581 193.94 282.774 193.94 283.009C193.94 283.217 194.016 283.381 194.168 283.502C194.319 283.623 194.556 283.723 194.878 283.804L195.688 284.003C196.175 284.121 196.539 284.302 196.778 284.546C197.017 284.788 197.136 285.099 197.136 285.48C197.136 285.793 197.046 286.072 196.866 286.318C196.689 286.564 196.44 286.759 196.121 286.901C195.801 287.043 195.429 287.114 195.006 287.114C194.449 287.114 193.989 286.993 193.624 286.751C193.26 286.51 193.029 286.157 192.932 285.693L193.727 285.494C193.803 285.788 193.946 286.008 194.157 286.155C194.37 286.302 194.648 286.375 194.991 286.375C195.382 286.375 195.692 286.292 195.922 286.126C196.154 285.958 196.27 285.757 196.27 285.523C196.27 285.333 196.204 285.175 196.071 285.047C195.938 284.917 195.735 284.82 195.46 284.756L194.551 284.543C194.052 284.424 193.685 284.241 193.45 283.992C193.218 283.741 193.102 283.428 193.102 283.051C193.102 282.743 193.189 282.471 193.362 282.234C193.537 281.998 193.775 281.812 194.075 281.677C194.378 281.542 194.722 281.474 195.105 281.474C195.645 281.474 196.069 281.593 196.376 281.83C196.687 282.066 196.907 282.379 197.037 282.767ZM201.324 287V279.727H202.162V282.412H202.233C202.295 282.317 202.38 282.196 202.489 282.05C202.6 281.901 202.759 281.768 202.965 281.652C203.173 281.534 203.455 281.474 203.81 281.474C204.269 281.474 204.674 281.589 205.024 281.819C205.375 282.049 205.648 282.374 205.845 282.795C206.041 283.217 206.139 283.714 206.139 284.287C206.139 284.865 206.041 285.365 205.845 285.789C205.648 286.21 205.376 286.537 205.028 286.769C204.68 286.999 204.279 287.114 203.824 287.114C203.474 287.114 203.193 287.056 202.982 286.94C202.772 286.821 202.61 286.687 202.496 286.538C202.382 286.387 202.295 286.261 202.233 286.162H202.134V287H201.324ZM202.148 284.273C202.148 284.685 202.208 285.048 202.329 285.363C202.45 285.675 202.626 285.92 202.858 286.098C203.09 286.273 203.374 286.361 203.71 286.361C204.061 286.361 204.353 286.268 204.588 286.084C204.824 285.897 205.002 285.646 205.12 285.331C205.241 285.014 205.301 284.661 205.301 284.273C205.301 283.889 205.242 283.544 205.124 283.236C205.008 282.926 204.831 282.681 204.595 282.501C204.36 282.318 204.066 282.227 203.71 282.227C203.369 282.227 203.083 282.314 202.851 282.487C202.619 282.657 202.444 282.896 202.325 283.204C202.207 283.509 202.148 283.866 202.148 284.273ZM209.708 287.114C209.183 287.114 208.729 286.998 208.348 286.766C207.969 286.531 207.677 286.205 207.471 285.786C207.267 285.364 207.166 284.874 207.166 284.315C207.166 283.757 207.267 283.264 207.471 282.838C207.677 282.41 207.963 282.076 208.33 281.837C208.7 281.595 209.131 281.474 209.623 281.474C209.907 281.474 210.188 281.522 210.465 281.616C210.742 281.711 210.994 281.865 211.221 282.078C211.448 282.289 211.629 282.568 211.764 282.916C211.899 283.264 211.967 283.693 211.967 284.202V284.557H207.762V283.832H211.115C211.115 283.525 211.053 283.25 210.93 283.009C210.809 282.767 210.636 282.576 210.411 282.437C210.189 282.297 209.926 282.227 209.623 282.227C209.289 282.227 209 282.31 208.757 282.476C208.515 282.639 208.329 282.852 208.199 283.115C208.069 283.378 208.004 283.66 208.004 283.96V284.443C208.004 284.855 208.075 285.204 208.217 285.491C208.361 285.775 208.561 285.991 208.817 286.141C209.073 286.287 209.37 286.361 209.708 286.361C209.928 286.361 210.127 286.33 210.305 286.268C210.485 286.205 210.64 286.11 210.77 285.984C210.9 285.857 211.001 285.698 211.072 285.509L211.882 285.736C211.796 286.01 211.653 286.252 211.452 286.46C211.251 286.666 211.002 286.827 210.706 286.943C210.41 287.057 210.078 287.114 209.708 287.114ZM215.529 287.114C215.003 287.114 214.55 286.998 214.169 286.766C213.79 286.531 213.497 286.205 213.291 285.786C213.088 285.364 212.986 284.874 212.986 284.315C212.986 283.757 213.088 283.264 213.291 282.838C213.497 282.41 213.784 282.076 214.151 281.837C214.52 281.595 214.951 281.474 215.443 281.474C215.727 281.474 216.008 281.522 216.285 281.616C216.562 281.711 216.814 281.865 217.041 282.078C217.269 282.289 217.45 282.568 217.585 282.916C217.72 283.264 217.787 283.693 217.787 284.202V284.557H213.583V283.832H216.935C216.935 283.525 216.873 283.25 216.75 283.009C216.629 282.767 216.457 282.576 216.232 282.437C216.009 282.297 215.746 282.227 215.443 282.227C215.11 282.227 214.821 282.31 214.577 282.476C214.335 282.639 214.15 282.852 214.019 283.115C213.889 283.378 213.824 283.66 213.824 283.96V284.443C213.824 284.855 213.895 285.204 214.037 285.491C214.182 285.775 214.382 285.991 214.637 286.141C214.893 286.287 215.19 286.361 215.529 286.361C215.749 286.361 215.948 286.33 216.125 286.268C216.305 286.205 216.46 286.11 216.59 285.984C216.721 285.857 216.821 285.698 216.892 285.509L217.702 285.736C217.617 286.01 217.473 286.252 217.272 286.46C217.071 286.666 216.822 286.827 216.526 286.943C216.231 287.057 215.898 287.114 215.529 287.114ZM219.9 283.719V287H219.062V281.545H219.872V282.398H219.943C220.07 282.121 220.265 281.898 220.525 281.73C220.785 281.56 221.122 281.474 221.534 281.474C221.903 281.474 222.226 281.55 222.503 281.702C222.78 281.851 222.995 282.078 223.149 282.384C223.303 282.687 223.38 283.07 223.38 283.534V287H222.542V283.591C222.542 283.162 222.431 282.829 222.208 282.589C221.986 282.348 221.68 282.227 221.292 282.227C221.025 282.227 220.785 282.285 220.575 282.401C220.366 282.517 220.202 282.687 220.081 282.909C219.96 283.132 219.9 283.402 219.9 283.719ZM227.724 289.045V281.545H228.534V282.412H228.633C228.695 282.317 228.78 282.196 228.889 282.05C229 281.901 229.159 281.768 229.365 281.652C229.573 281.534 229.855 281.474 230.21 281.474C230.669 281.474 231.074 281.589 231.424 281.819C231.775 282.049 232.048 282.374 232.245 282.795C232.441 283.217 232.539 283.714 232.539 284.287C232.539 284.865 232.441 285.365 232.245 285.789C232.048 286.21 231.776 286.537 231.428 286.769C231.08 286.999 230.679 287.114 230.224 287.114C229.874 287.114 229.593 287.056 229.382 286.94C229.172 286.821 229.01 286.687 228.896 286.538C228.782 286.387 228.695 286.261 228.633 286.162H228.562V289.045H227.724ZM228.548 284.273C228.548 284.685 228.608 285.048 228.729 285.363C228.85 285.675 229.026 285.92 229.258 286.098C229.49 286.273 229.774 286.361 230.11 286.361C230.461 286.361 230.753 286.268 230.988 286.084C231.224 285.897 231.402 285.646 231.52 285.331C231.641 285.014 231.701 284.661 231.701 284.273C231.701 283.889 231.642 283.544 231.524 283.236C231.408 282.926 231.231 282.681 230.995 282.501C230.76 282.318 230.466 282.227 230.11 282.227C229.77 282.227 229.483 282.314 229.251 282.487C229.019 282.657 228.844 282.896 228.725 283.204C228.607 283.509 228.548 283.866 228.548 284.273ZM233.818 287V281.545H234.627V282.369H234.684C234.784 282.099 234.964 281.88 235.224 281.712C235.484 281.544 235.778 281.46 236.105 281.46C236.166 281.46 236.243 281.461 236.336 281.464C236.428 281.466 236.498 281.47 236.545 281.474V282.327C236.517 282.32 236.452 282.309 236.35 282.295C236.25 282.278 236.145 282.27 236.034 282.27C235.769 282.27 235.532 282.326 235.324 282.437C235.118 282.546 234.954 282.697 234.833 282.891C234.715 283.083 234.656 283.302 234.656 283.548V287H233.818ZM239.588 287.114C239.096 287.114 238.664 286.996 238.292 286.762C237.923 286.528 237.634 286.2 237.426 285.778C237.22 285.357 237.117 284.865 237.117 284.301C237.117 283.733 237.22 283.237 237.426 282.813C237.634 282.389 237.923 282.06 238.292 281.826C238.664 281.592 239.096 281.474 239.588 281.474C240.081 281.474 240.512 281.592 240.881 281.826C241.253 282.06 241.542 282.389 241.748 282.813C241.956 283.237 242.06 283.733 242.06 284.301C242.06 284.865 241.956 285.357 241.748 285.778C241.542 286.2 241.253 286.528 240.881 286.762C240.512 286.996 240.081 287.114 239.588 287.114ZM239.588 286.361C239.962 286.361 240.27 286.265 240.512 286.073C240.753 285.881 240.932 285.629 241.048 285.317C241.164 285.004 241.222 284.666 241.222 284.301C241.222 283.937 241.164 283.597 241.048 283.282C240.932 282.967 240.753 282.713 240.512 282.518C240.27 282.324 239.962 282.227 239.588 282.227C239.214 282.227 238.907 282.324 238.665 282.518C238.424 282.713 238.245 282.967 238.129 283.282C238.013 283.597 237.955 283.937 237.955 284.301C237.955 284.666 238.013 285.004 238.129 285.317C238.245 285.629 238.424 285.881 238.665 286.073C238.907 286.265 239.214 286.361 239.588 286.361ZM245.555 287.114C245.044 287.114 244.604 286.993 244.234 286.751C243.865 286.51 243.581 286.177 243.382 285.754C243.183 285.33 243.084 284.846 243.084 284.301C243.084 283.747 243.185 283.258 243.389 282.835C243.595 282.408 243.881 282.076 244.248 281.837C244.618 281.595 245.049 281.474 245.541 281.474C245.925 281.474 246.27 281.545 246.578 281.688C246.886 281.83 247.138 282.028 247.334 282.284C247.531 282.54 247.653 282.838 247.7 283.179H246.862C246.798 282.93 246.656 282.71 246.436 282.518C246.218 282.324 245.925 282.227 245.555 282.227C245.229 282.227 244.942 282.312 244.696 282.483C244.452 282.651 244.261 282.889 244.124 283.197C243.989 283.502 243.922 283.861 243.922 284.273C243.922 284.694 243.988 285.061 244.121 285.374C244.256 285.686 244.445 285.929 244.689 286.102C244.935 286.274 245.224 286.361 245.555 286.361C245.773 286.361 245.971 286.323 246.148 286.247C246.326 286.171 246.476 286.062 246.599 285.92C246.722 285.778 246.81 285.608 246.862 285.409H247.7C247.653 285.731 247.536 286.021 247.349 286.279C247.164 286.535 246.919 286.738 246.613 286.89C246.31 287.039 245.958 287.114 245.555 287.114ZM251.212 287.114C250.687 287.114 250.233 286.998 249.852 286.766C249.473 286.531 249.181 286.205 248.975 285.786C248.771 285.364 248.67 284.874 248.67 284.315C248.67 283.757 248.771 283.264 248.975 282.838C249.181 282.41 249.467 282.076 249.834 281.837C250.204 281.595 250.635 281.474 251.127 281.474C251.411 281.474 251.692 281.522 251.969 281.616C252.246 281.711 252.498 281.865 252.725 282.078C252.952 282.289 253.133 282.568 253.268 282.916C253.403 283.264 253.471 283.693 253.471 284.202V284.557H249.266V283.832H252.618C252.618 283.525 252.557 283.25 252.434 283.009C252.313 282.767 252.14 282.576 251.915 282.437C251.693 282.297 251.43 282.227 251.127 282.227C250.793 282.227 250.504 282.31 250.26 282.476C250.019 282.639 249.833 282.852 249.703 283.115C249.573 283.378 249.508 283.66 249.508 283.96V284.443C249.508 284.855 249.579 285.204 249.721 285.491C249.865 285.775 250.065 285.991 250.321 286.141C250.577 286.287 250.874 286.361 251.212 286.361C251.432 286.361 251.631 286.33 251.809 286.268C251.989 286.205 252.144 286.11 252.274 285.984C252.404 285.857 252.505 285.698 252.576 285.509L253.385 285.736C253.3 286.01 253.157 286.252 252.956 286.46C252.755 286.666 252.506 286.827 252.21 286.943C251.914 287.057 251.581 287.114 251.212 287.114ZM258.609 282.767L257.856 282.98C257.809 282.855 257.739 282.733 257.647 282.614C257.557 282.494 257.434 282.394 257.278 282.316C257.121 282.238 256.921 282.199 256.677 282.199C256.344 282.199 256.065 282.276 255.843 282.43C255.623 282.581 255.513 282.774 255.513 283.009C255.513 283.217 255.588 283.381 255.74 283.502C255.891 283.623 256.128 283.723 256.45 283.804L257.26 284.003C257.747 284.121 258.111 284.302 258.35 284.546C258.589 284.788 258.709 285.099 258.709 285.48C258.709 285.793 258.619 286.072 258.439 286.318C258.261 286.564 258.013 286.759 257.693 286.901C257.373 287.043 257.002 287.114 256.578 287.114C256.022 287.114 255.561 286.993 255.197 286.751C254.832 286.51 254.601 286.157 254.504 285.693L255.3 285.494C255.375 285.788 255.519 286.008 255.729 286.155C255.942 286.302 256.22 286.375 256.564 286.375C256.954 286.375 257.265 286.292 257.494 286.126C257.726 285.958 257.842 285.757 257.842 285.523C257.842 285.333 257.776 285.175 257.643 285.047C257.511 284.917 257.307 284.82 257.032 284.756L256.123 284.543C255.624 284.424 255.257 284.241 255.023 283.992C254.791 283.741 254.675 283.428 254.675 283.051C254.675 282.743 254.761 282.471 254.934 282.234C255.109 281.998 255.347 281.812 255.648 281.677C255.951 281.542 256.294 281.474 256.677 281.474C257.217 281.474 257.641 281.593 257.949 281.83C258.259 282.066 258.479 282.379 258.609 282.767ZM263.834 282.767L263.081 282.98C263.034 282.855 262.964 282.733 262.871 282.614C262.781 282.494 262.658 282.394 262.502 282.316C262.346 282.238 262.146 282.199 261.902 282.199C261.568 282.199 261.29 282.276 261.067 282.43C260.847 282.581 260.737 282.774 260.737 283.009C260.737 283.217 260.813 283.381 260.964 283.502C261.116 283.623 261.353 283.723 261.675 283.804L262.484 284.003C262.972 284.121 263.335 284.302 263.575 284.546C263.814 284.788 263.933 285.099 263.933 285.48C263.933 285.793 263.843 286.072 263.663 286.318C263.486 286.564 263.237 286.759 262.918 286.901C262.598 287.043 262.226 287.114 261.803 287.114C261.246 287.114 260.786 286.993 260.421 286.751C260.057 286.51 259.826 286.157 259.729 285.693L260.524 285.494C260.6 285.788 260.743 286.008 260.954 286.155C261.167 286.302 261.445 286.375 261.788 286.375C262.179 286.375 262.489 286.292 262.719 286.126C262.951 285.958 263.067 285.757 263.067 285.523C263.067 285.333 263 285.175 262.868 285.047C262.735 284.917 262.532 284.82 262.257 284.756L261.348 284.543C260.848 284.424 260.482 284.241 260.247 283.992C260.015 283.741 259.899 283.428 259.899 283.051C259.899 282.743 259.986 282.471 260.158 282.234C260.334 281.998 260.571 281.812 260.872 281.677C261.175 281.542 261.518 281.474 261.902 281.474C262.442 281.474 262.866 281.593 263.173 281.83C263.483 282.066 263.704 282.379 263.834 282.767ZM267.482 287.114C266.956 287.114 266.503 286.998 266.122 286.766C265.743 286.531 265.45 286.205 265.244 285.786C265.041 285.364 264.939 284.874 264.939 284.315C264.939 283.757 265.041 283.264 265.244 282.838C265.45 282.41 265.737 282.076 266.104 281.837C266.473 281.595 266.904 281.474 267.396 281.474C267.681 281.474 267.961 281.522 268.238 281.616C268.515 281.711 268.767 281.865 268.994 282.078C269.222 282.289 269.403 282.568 269.538 282.916C269.673 283.264 269.74 283.693 269.74 284.202V284.557H265.536V283.832H268.888C268.888 283.525 268.826 283.25 268.703 283.009C268.583 282.767 268.41 282.576 268.185 282.437C267.962 282.297 267.7 282.227 267.396 282.227C267.063 282.227 266.774 282.31 266.53 282.476C266.289 282.639 266.103 282.852 265.972 283.115C265.842 283.378 265.777 283.66 265.777 283.96V284.443C265.777 284.855 265.848 285.204 265.99 285.491C266.135 285.775 266.335 285.991 266.59 286.141C266.846 286.287 267.143 286.361 267.482 286.361C267.702 286.361 267.901 286.33 268.078 286.268C268.258 286.205 268.413 286.11 268.544 285.984C268.674 285.857 268.774 285.698 268.845 285.509L269.655 285.736C269.57 286.01 269.427 286.252 269.225 286.46C269.024 286.666 268.776 286.827 268.48 286.943C268.184 287.057 267.851 287.114 267.482 287.114ZM273.075 287.114C272.62 287.114 272.219 286.999 271.871 286.769C271.523 286.537 271.251 286.21 271.054 285.789C270.858 285.365 270.759 284.865 270.759 284.287C270.759 283.714 270.858 283.217 271.054 282.795C271.251 282.374 271.524 282.049 271.874 281.819C272.225 281.589 272.63 281.474 273.089 281.474C273.444 281.474 273.725 281.534 273.931 281.652C274.139 281.768 274.298 281.901 274.406 282.05C274.518 282.196 274.604 282.317 274.666 282.412H274.737V279.727H275.575V287H274.765V286.162H274.666C274.604 286.261 274.517 286.387 274.403 286.538C274.289 286.687 274.127 286.821 273.916 286.94C273.706 287.056 273.425 287.114 273.075 287.114ZM273.188 286.361C273.525 286.361 273.809 286.273 274.041 286.098C274.273 285.92 274.449 285.675 274.57 285.363C274.691 285.048 274.751 284.685 274.751 284.273C274.751 283.866 274.692 283.509 274.573 283.204C274.455 282.896 274.28 282.657 274.048 282.487C273.816 282.314 273.529 282.227 273.188 282.227C272.833 282.227 272.537 282.318 272.301 282.501C272.066 282.681 271.89 282.926 271.771 283.236C271.655 283.544 271.597 283.889 271.597 284.273C271.597 284.661 271.657 285.014 271.775 285.331C271.896 285.646 272.073 285.897 272.308 286.084C272.544 286.268 272.838 286.361 273.188 286.361ZM277.837 287.057C277.662 287.057 277.511 286.994 277.386 286.869C277.26 286.743 277.198 286.593 277.198 286.418C277.198 286.242 277.26 286.092 277.386 285.967C277.511 285.841 277.662 285.778 277.837 285.778C278.012 285.778 278.162 285.841 278.288 285.967C278.413 286.092 278.476 286.242 278.476 286.418C278.476 286.534 278.446 286.64 278.387 286.737C278.33 286.834 278.253 286.912 278.156 286.972C278.062 287.028 277.955 287.057 277.837 287.057ZM282.508 280.509V279.727H287.963V280.509H285.676V287H284.795V280.509H282.508ZM290.047 283.719V287H289.208V279.727H290.047V282.398H290.118C290.245 282.116 290.437 281.892 290.693 281.727C290.951 281.558 291.294 281.474 291.723 281.474C292.094 281.474 292.42 281.549 292.699 281.698C292.979 281.845 293.195 282.071 293.349 282.376C293.505 282.679 293.583 283.065 293.583 283.534V287H292.745V283.591C292.745 283.158 292.633 282.823 292.408 282.586C292.185 282.347 291.877 282.227 291.481 282.227C291.207 282.227 290.96 282.285 290.743 282.401C290.527 282.517 290.357 282.687 290.231 282.909C290.108 283.132 290.047 283.402 290.047 283.719ZM297.404 287.114C296.878 287.114 296.425 286.998 296.044 286.766C295.665 286.531 295.372 286.205 295.166 285.786C294.963 285.364 294.861 284.874 294.861 284.315C294.861 283.757 294.963 283.264 295.166 282.838C295.372 282.41 295.659 282.076 296.026 281.837C296.395 281.595 296.826 281.474 297.318 281.474C297.602 281.474 297.883 281.522 298.16 281.616C298.437 281.711 298.689 281.865 298.916 282.078C299.144 282.289 299.325 282.568 299.46 282.916C299.595 283.264 299.662 283.693 299.662 284.202V284.557H295.458V283.832H298.81C298.81 283.525 298.748 283.25 298.625 283.009C298.504 282.767 298.332 282.576 298.107 282.437C297.884 282.297 297.621 282.227 297.318 282.227C296.985 282.227 296.696 282.31 296.452 282.476C296.21 282.639 296.025 282.852 295.894 283.115C295.764 283.378 295.699 283.66 295.699 283.96V284.443C295.699 284.855 295.77 285.204 295.912 285.491C296.057 285.775 296.257 285.991 296.512 286.141C296.768 286.287 297.065 286.361 297.404 286.361C297.624 286.361 297.823 286.33 298 286.268C298.18 286.205 298.335 286.11 298.465 285.984C298.596 285.857 298.696 285.698 298.767 285.509L299.577 285.736C299.492 286.01 299.348 286.252 299.147 286.46C298.946 286.666 298.697 286.827 298.401 286.943C298.106 287.057 297.773 287.114 297.404 287.114ZM119.139 293.545V294.256H116.312V293.545H119.139ZM117.136 292.239H117.974V297.438C117.974 297.674 118.009 297.852 118.077 297.97C118.148 298.086 118.238 298.164 118.347 298.205C118.459 298.242 118.576 298.261 118.699 298.261C118.791 298.261 118.867 298.257 118.926 298.247C118.985 298.235 119.033 298.226 119.068 298.219L119.239 298.972C119.182 298.993 119.103 299.014 119.001 299.036C118.899 299.059 118.77 299.071 118.614 299.071C118.377 299.071 118.145 299.02 117.918 298.918C117.693 298.817 117.506 298.661 117.357 298.453C117.21 298.245 117.136 297.982 117.136 297.665V292.239ZM122.557 299.114C122.065 299.114 121.633 298.996 121.261 298.762C120.892 298.528 120.603 298.2 120.395 297.778C120.189 297.357 120.086 296.865 120.086 296.301C120.086 295.733 120.189 295.237 120.395 294.813C120.603 294.389 120.892 294.06 121.261 293.826C121.633 293.592 122.065 293.474 122.557 293.474C123.05 293.474 123.48 293.592 123.85 293.826C124.221 294.06 124.51 294.389 124.716 294.813C124.925 295.237 125.029 295.733 125.029 296.301C125.029 296.865 124.925 297.357 124.716 297.778C124.51 298.2 124.221 298.528 123.85 298.762C123.48 298.996 123.05 299.114 122.557 299.114ZM122.557 298.361C122.931 298.361 123.239 298.265 123.48 298.073C123.722 297.881 123.901 297.629 124.017 297.317C124.133 297.004 124.191 296.666 124.191 296.301C124.191 295.937 124.133 295.597 124.017 295.282C123.901 294.967 123.722 294.713 123.48 294.518C123.239 294.324 122.931 294.227 122.557 294.227C122.183 294.227 121.875 294.324 121.634 294.518C121.392 294.713 121.214 294.967 121.098 295.282C120.982 295.597 120.924 295.937 120.924 296.301C120.924 296.666 120.982 297.004 121.098 297.317C121.214 297.629 121.392 297.881 121.634 298.073C121.875 298.265 122.183 298.361 122.557 298.361ZM128.68 293.545V294.256H125.854V293.545H128.68ZM126.677 292.239H127.515V297.438C127.515 297.674 127.55 297.852 127.618 297.97C127.689 298.086 127.779 298.164 127.888 298.205C128 298.242 128.117 298.261 128.24 298.261C128.332 298.261 128.408 298.257 128.467 298.247C128.526 298.235 128.574 298.226 128.609 298.219L128.78 298.972C128.723 298.993 128.644 299.014 128.542 299.036C128.44 299.059 128.311 299.071 128.155 299.071C127.918 299.071 127.686 299.02 127.459 298.918C127.234 298.817 127.047 298.661 126.898 298.453C126.751 298.245 126.677 297.982 126.677 297.665V292.239ZM131.546 299.128C131.2 299.128 130.887 299.063 130.605 298.933C130.323 298.8 130.099 298.609 129.934 298.361C129.768 298.11 129.685 297.807 129.685 297.452C129.685 297.139 129.747 296.886 129.87 296.692C129.993 296.495 130.157 296.341 130.363 296.23C130.569 296.119 130.797 296.036 131.045 295.982C131.296 295.925 131.548 295.88 131.802 295.847C132.133 295.804 132.402 295.772 132.608 295.751C132.816 295.727 132.968 295.688 133.062 295.634C133.159 295.579 133.208 295.484 133.208 295.349V295.321C133.208 294.971 133.112 294.698 132.92 294.504C132.731 294.31 132.443 294.213 132.057 294.213C131.657 294.213 131.344 294.301 131.116 294.476C130.889 294.651 130.729 294.838 130.637 295.037L129.841 294.753C129.983 294.421 130.173 294.163 130.41 293.979C130.649 293.792 130.909 293.661 131.191 293.588C131.475 293.512 131.754 293.474 132.029 293.474C132.204 293.474 132.405 293.496 132.633 293.538C132.862 293.579 133.084 293.663 133.297 293.79C133.512 293.918 133.691 294.111 133.833 294.369C133.975 294.627 134.046 294.973 134.046 295.406V299H133.208V298.261H133.165C133.108 298.38 133.014 298.506 132.881 298.641C132.749 298.776 132.572 298.891 132.352 298.986C132.132 299.08 131.863 299.128 131.546 299.128ZM131.674 298.375C132.005 298.375 132.285 298.31 132.512 298.18C132.742 298.049 132.914 297.881 133.03 297.675C133.149 297.469 133.208 297.253 133.208 297.026V296.259C133.172 296.301 133.094 296.34 132.974 296.376C132.855 296.409 132.718 296.438 132.562 296.464C132.408 296.488 132.257 296.509 132.111 296.528C131.966 296.545 131.849 296.559 131.759 296.571C131.541 296.599 131.338 296.646 131.148 296.71C130.961 296.771 130.81 296.865 130.694 296.99C130.58 297.113 130.523 297.281 130.523 297.494C130.523 297.786 130.631 298.006 130.846 298.155C131.064 298.302 131.34 298.375 131.674 298.375ZM136.414 291.727V299H135.576V291.727H136.414ZM142.366 299.128C142.021 299.128 141.707 299.063 141.425 298.933C141.144 298.8 140.92 298.609 140.754 298.361C140.588 298.11 140.506 297.807 140.506 297.452C140.506 297.139 140.567 296.886 140.69 296.692C140.813 296.495 140.978 296.341 141.184 296.23C141.39 296.119 141.617 296.036 141.866 295.982C142.117 295.925 142.369 295.88 142.622 295.847C142.953 295.804 143.222 295.772 143.428 295.751C143.636 295.727 143.788 295.688 143.883 295.634C143.98 295.579 144.028 295.484 144.028 295.349V295.321C144.028 294.971 143.932 294.698 143.741 294.504C143.551 294.31 143.264 294.213 142.878 294.213C142.478 294.213 142.164 294.301 141.937 294.476C141.709 294.651 141.55 294.838 141.457 295.037L140.662 294.753C140.804 294.421 140.993 294.163 141.23 293.979C141.469 293.792 141.729 293.661 142.011 293.588C142.295 293.512 142.575 293.474 142.849 293.474C143.024 293.474 143.226 293.496 143.453 293.538C143.683 293.579 143.904 293.663 144.117 293.79C144.332 293.918 144.511 294.111 144.653 294.369C144.795 294.627 144.866 294.973 144.866 295.406V299H144.028V298.261H143.986C143.929 298.38 143.834 298.506 143.702 298.641C143.569 298.776 143.393 298.891 143.172 298.986C142.952 299.08 142.684 299.128 142.366 299.128ZM142.494 298.375C142.826 298.375 143.105 298.31 143.332 298.18C143.562 298.049 143.735 297.881 143.851 297.675C143.969 297.469 144.028 297.253 144.028 297.026V296.259C143.993 296.301 143.915 296.34 143.794 296.376C143.675 296.409 143.538 296.438 143.382 296.464C143.228 296.488 143.078 296.509 142.931 296.528C142.787 296.545 142.669 296.559 142.579 296.571C142.362 296.599 142.158 296.646 141.969 296.71C141.782 296.771 141.63 296.865 141.514 296.99C141.4 297.113 141.344 297.281 141.344 297.494C141.344 297.786 141.451 298.006 141.667 298.155C141.885 298.302 142.16 298.375 142.494 298.375ZM146.396 299V293.545H147.206V294.398H147.277C147.39 294.107 147.574 293.88 147.827 293.719C148.08 293.556 148.385 293.474 148.74 293.474C149.1 293.474 149.399 293.556 149.638 293.719C149.88 293.88 150.068 294.107 150.203 294.398H150.26C150.399 294.116 150.609 293.892 150.888 293.727C151.167 293.558 151.502 293.474 151.893 293.474C152.381 293.474 152.78 293.627 153.09 293.933C153.4 294.236 153.555 294.708 153.555 295.349V299H152.717V295.349C152.717 294.947 152.607 294.659 152.387 294.487C152.167 294.314 151.907 294.227 151.609 294.227C151.225 294.227 150.928 294.343 150.718 294.575C150.507 294.805 150.402 295.096 150.402 295.449V299H149.549V295.264C149.549 294.954 149.449 294.704 149.248 294.515C149.046 294.323 148.787 294.227 148.47 294.227C148.252 294.227 148.048 294.285 147.859 294.401C147.672 294.517 147.52 294.678 147.404 294.884C147.291 295.088 147.234 295.323 147.234 295.591V299H146.396ZM157.303 299.114C156.811 299.114 156.379 298.996 156.007 298.762C155.638 298.528 155.349 298.2 155.141 297.778C154.935 297.357 154.832 296.865 154.832 296.301C154.832 295.733 154.935 295.237 155.141 294.813C155.349 294.389 155.638 294.06 156.007 293.826C156.379 293.592 156.811 293.474 157.303 293.474C157.796 293.474 158.227 293.592 158.596 293.826C158.968 294.06 159.256 294.389 159.462 294.813C159.671 295.237 159.775 295.733 159.775 296.301C159.775 296.865 159.671 297.357 159.462 297.778C159.256 298.2 158.968 298.528 158.596 298.762C158.227 298.996 157.796 299.114 157.303 299.114ZM157.303 298.361C157.677 298.361 157.985 298.265 158.227 298.073C158.468 297.881 158.647 297.629 158.763 297.317C158.879 297.004 158.937 296.666 158.937 296.301C158.937 295.937 158.879 295.597 158.763 295.282C158.647 294.967 158.468 294.713 158.227 294.518C157.985 294.324 157.677 294.227 157.303 294.227C156.929 294.227 156.621 294.324 156.38 294.518C156.138 294.713 155.96 294.967 155.844 295.282C155.728 295.597 155.67 295.937 155.67 296.301C155.67 296.666 155.728 297.004 155.844 297.317C155.96 297.629 156.138 297.881 156.38 298.073C156.621 298.265 156.929 298.361 157.303 298.361ZM164.492 296.77V293.545H165.33V299H164.492V298.077H164.435C164.307 298.354 164.108 298.589 163.838 298.783C163.568 298.975 163.227 299.071 162.816 299.071C162.475 299.071 162.172 298.996 161.906 298.847C161.641 298.696 161.433 298.469 161.281 298.165C161.13 297.86 161.054 297.475 161.054 297.011V293.545H161.892V296.955C161.892 297.352 162.003 297.67 162.226 297.906C162.451 298.143 162.737 298.261 163.085 298.261C163.294 298.261 163.506 298.208 163.721 298.102C163.939 297.995 164.121 297.832 164.268 297.612C164.417 297.391 164.492 297.111 164.492 296.77ZM167.703 295.719V299H166.865V293.545H167.674V294.398H167.745C167.873 294.121 168.067 293.898 168.328 293.73C168.588 293.56 168.924 293.474 169.336 293.474C169.706 293.474 170.029 293.55 170.306 293.702C170.583 293.851 170.798 294.078 170.952 294.384C171.106 294.687 171.183 295.07 171.183 295.534V299H170.345V295.591C170.345 295.162 170.234 294.829 170.011 294.589C169.788 294.348 169.483 294.227 169.095 294.227C168.827 294.227 168.588 294.285 168.377 294.401C168.169 294.517 168.005 294.687 167.884 294.909C167.763 295.132 167.703 295.402 167.703 295.719ZM175.086 293.545V294.256H172.26V293.545H175.086ZM173.084 292.239H173.922V297.438C173.922 297.674 173.956 297.852 174.025 297.97C174.096 298.086 174.186 298.164 174.295 298.205C174.406 298.242 174.523 298.261 174.646 298.261C174.738 298.261 174.814 298.257 174.873 298.247C174.933 298.235 174.98 298.226 175.015 298.219L175.186 298.972C175.129 298.993 175.05 299.014 174.948 299.036C174.846 299.059 174.717 299.071 174.561 299.071C174.324 299.071 174.092 299.02 173.865 298.918C173.64 298.817 173.453 298.661 173.304 298.453C173.157 298.245 173.084 297.982 173.084 297.665V292.239ZM181.219 299.114C180.765 299.114 180.363 298.999 180.015 298.769C179.667 298.537 179.395 298.21 179.199 297.789C179.002 297.365 178.904 296.865 178.904 296.287C178.904 295.714 179.002 295.217 179.199 294.795C179.395 294.374 179.669 294.049 180.019 293.819C180.369 293.589 180.774 293.474 181.233 293.474C181.589 293.474 181.869 293.534 182.075 293.652C182.283 293.768 182.442 293.901 182.551 294.05C182.662 294.196 182.749 294.317 182.81 294.412H182.881V291.727H183.719V299H182.91V298.162H182.81C182.749 298.261 182.661 298.387 182.547 298.538C182.434 298.687 182.272 298.821 182.061 298.94C181.85 299.056 181.57 299.114 181.219 299.114ZM181.333 298.361C181.669 298.361 181.953 298.273 182.185 298.098C182.417 297.92 182.594 297.675 182.714 297.363C182.835 297.048 182.895 296.685 182.895 296.273C182.895 295.866 182.836 295.509 182.718 295.204C182.599 294.896 182.424 294.657 182.192 294.487C181.96 294.314 181.674 294.227 181.333 294.227C180.978 294.227 180.682 294.318 180.445 294.501C180.211 294.681 180.034 294.926 179.916 295.236C179.8 295.544 179.742 295.889 179.742 296.273C179.742 296.661 179.801 297.014 179.92 297.331C180.04 297.646 180.218 297.897 180.452 298.084C180.689 298.268 180.983 298.361 181.333 298.361ZM187.657 299.114C187.132 299.114 186.679 298.998 186.297 298.766C185.919 298.531 185.626 298.205 185.42 297.786C185.217 297.364 185.115 296.874 185.115 296.315C185.115 295.757 185.217 295.264 185.42 294.838C185.626 294.41 185.913 294.076 186.28 293.837C186.649 293.595 187.08 293.474 187.572 293.474C187.856 293.474 188.137 293.522 188.414 293.616C188.691 293.711 188.943 293.865 189.17 294.078C189.398 294.289 189.579 294.568 189.714 294.916C189.849 295.264 189.916 295.693 189.916 296.202V296.557H185.711V295.832H189.064C189.064 295.525 189.002 295.25 188.879 295.009C188.758 294.767 188.586 294.576 188.361 294.437C188.138 294.297 187.875 294.227 187.572 294.227C187.238 294.227 186.95 294.31 186.706 294.476C186.464 294.639 186.278 294.852 186.148 295.115C186.018 295.378 185.953 295.66 185.953 295.96V296.443C185.953 296.855 186.024 297.204 186.166 297.491C186.31 297.775 186.51 297.991 186.766 298.141C187.022 298.287 187.319 298.361 187.657 298.361C187.878 298.361 188.077 298.33 188.254 298.268C188.434 298.205 188.589 298.11 188.719 297.984C188.849 297.857 188.95 297.698 189.021 297.509L189.831 297.736C189.746 298.01 189.602 298.252 189.401 298.46C189.2 298.666 188.951 298.827 188.655 298.943C188.359 299.057 188.027 299.114 187.657 299.114ZM193.251 299.114C192.796 299.114 192.395 298.999 192.047 298.769C191.699 298.537 191.426 298.21 191.23 297.789C191.033 297.365 190.935 296.865 190.935 296.287C190.935 295.714 191.033 295.217 191.23 294.795C191.426 294.374 191.7 294.049 192.05 293.819C192.401 293.589 192.805 293.474 193.265 293.474C193.62 293.474 193.9 293.534 194.106 293.652C194.315 293.768 194.473 293.901 194.582 294.05C194.693 294.196 194.78 294.317 194.841 294.412H194.912V291.727H195.751V299H194.941V298.162H194.841C194.78 298.261 194.692 298.387 194.579 298.538C194.465 298.687 194.303 298.821 194.092 298.94C193.881 299.056 193.601 299.114 193.251 299.114ZM193.364 298.361C193.7 298.361 193.984 298.273 194.216 298.098C194.448 297.92 194.625 297.675 194.746 297.363C194.866 297.048 194.927 296.685 194.927 296.273C194.927 295.866 194.867 295.509 194.749 295.204C194.631 294.896 194.456 294.657 194.224 294.487C193.992 294.314 193.705 294.227 193.364 294.227C193.009 294.227 192.713 294.318 192.476 294.501C192.242 294.681 192.066 294.926 191.947 295.236C191.831 295.544 191.773 295.889 191.773 296.273C191.773 296.661 191.832 297.014 191.951 297.331C192.072 297.646 192.249 297.897 192.483 298.084C192.72 298.268 193.014 298.361 193.364 298.361ZM200.839 296.77V293.545H201.677V299H200.839V298.077H200.782C200.655 298.354 200.456 298.589 200.186 298.783C199.916 298.975 199.575 299.071 199.163 299.071C198.822 299.071 198.519 298.996 198.254 298.847C197.989 298.696 197.781 298.469 197.629 298.165C197.478 297.86 197.402 297.475 197.402 297.011V293.545H198.24V296.955C198.24 297.352 198.351 297.67 198.574 297.906C198.799 298.143 199.085 298.261 199.433 298.261C199.641 298.261 199.853 298.208 200.069 298.102C200.287 297.995 200.469 297.832 200.616 297.612C200.765 297.391 200.839 297.111 200.839 296.77ZM205.428 299.114C204.917 299.114 204.477 298.993 204.107 298.751C203.738 298.51 203.454 298.177 203.255 297.754C203.056 297.33 202.957 296.846 202.957 296.301C202.957 295.747 203.058 295.258 203.262 294.835C203.468 294.408 203.754 294.076 204.121 293.837C204.491 293.595 204.922 293.474 205.414 293.474C205.798 293.474 206.143 293.545 206.451 293.688C206.759 293.83 207.011 294.028 207.207 294.284C207.404 294.54 207.526 294.838 207.573 295.179H206.735C206.671 294.93 206.529 294.71 206.309 294.518C206.091 294.324 205.798 294.227 205.428 294.227C205.102 294.227 204.815 294.312 204.569 294.483C204.325 294.651 204.134 294.889 203.997 295.197C203.862 295.502 203.795 295.861 203.795 296.273C203.795 296.694 203.861 297.061 203.994 297.374C204.129 297.686 204.318 297.929 204.562 298.102C204.808 298.274 205.097 298.361 205.428 298.361C205.646 298.361 205.844 298.323 206.021 298.247C206.199 298.171 206.349 298.062 206.472 297.92C206.595 297.778 206.683 297.608 206.735 297.409H207.573C207.526 297.731 207.409 298.021 207.222 298.279C207.037 298.535 206.792 298.738 206.487 298.89C206.183 299.039 205.831 299.114 205.428 299.114ZM211.17 293.545V294.256H208.344V293.545H211.17ZM209.168 292.239H210.006V297.438C210.006 297.674 210.04 297.852 210.109 297.97C210.18 298.086 210.27 298.164 210.379 298.205C210.49 298.242 210.607 298.261 210.73 298.261C210.822 298.261 210.898 298.257 210.957 298.247C211.017 298.235 211.064 298.226 211.099 298.219L211.27 298.972C211.213 298.993 211.134 299.014 211.032 299.036C210.93 299.059 210.801 299.071 210.645 299.071C210.408 299.071 210.176 299.02 209.949 298.918C209.724 298.817 209.537 298.661 209.388 298.453C209.241 298.245 209.168 297.982 209.168 297.665V292.239ZM214.659 299.114C214.134 299.114 213.681 298.998 213.299 298.766C212.921 298.531 212.628 298.205 212.422 297.786C212.219 297.364 212.117 296.874 212.117 296.315C212.117 295.757 212.219 295.264 212.422 294.838C212.628 294.41 212.915 294.076 213.282 293.837C213.651 293.595 214.082 293.474 214.574 293.474C214.858 293.474 215.139 293.522 215.416 293.616C215.693 293.711 215.945 293.865 216.172 294.078C216.4 294.289 216.581 294.568 216.716 294.916C216.85 295.264 216.918 295.693 216.918 296.202V296.557H212.713V295.832H216.066C216.066 295.525 216.004 295.25 215.881 295.009C215.76 294.767 215.587 294.576 215.363 294.437C215.14 294.297 214.877 294.227 214.574 294.227C214.24 294.227 213.952 294.31 213.708 294.476C213.466 294.639 213.28 294.852 213.15 295.115C213.02 295.378 212.955 295.66 212.955 295.96V296.443C212.955 296.855 213.026 297.204 213.168 297.491C213.312 297.775 213.512 297.991 213.768 298.141C214.024 298.287 214.321 298.361 214.659 298.361C214.88 298.361 215.078 298.33 215.256 298.268C215.436 298.205 215.591 298.11 215.721 297.984C215.851 297.857 215.952 297.698 216.023 297.509L216.833 297.736C216.748 298.01 216.604 298.252 216.403 298.46C216.202 298.666 215.953 298.827 215.657 298.943C215.361 299.057 215.029 299.114 214.659 299.114ZM220.252 299.114C219.798 299.114 219.397 298.999 219.049 298.769C218.701 298.537 218.428 298.21 218.232 297.789C218.035 297.365 217.937 296.865 217.937 296.287C217.937 295.714 218.035 295.217 218.232 294.795C218.428 294.374 218.702 294.049 219.052 293.819C219.403 293.589 219.807 293.474 220.267 293.474C220.622 293.474 220.902 293.534 221.108 293.652C221.317 293.768 221.475 293.901 221.584 294.05C221.695 294.196 221.782 294.317 221.843 294.412H221.914V291.727H222.752V299H221.943V298.162H221.843C221.782 298.261 221.694 298.387 221.581 298.538C221.467 298.687 221.305 298.821 221.094 298.94C220.883 299.056 220.603 299.114 220.252 299.114ZM220.366 298.361C220.702 298.361 220.986 298.273 221.218 298.098C221.45 297.92 221.627 297.675 221.748 297.363C221.868 297.048 221.929 296.685 221.929 296.273C221.929 295.866 221.869 295.509 221.751 295.204C221.633 294.896 221.458 294.657 221.225 294.487C220.993 294.314 220.707 294.227 220.366 294.227C220.011 294.227 219.715 294.318 219.478 294.501C219.244 294.681 219.068 294.926 218.949 295.236C218.833 295.544 218.775 295.889 218.775 296.273C218.775 296.661 218.834 297.014 218.953 297.331C219.074 297.646 219.251 297.897 219.485 298.084C219.722 298.268 220.016 298.361 220.366 298.361ZM229.645 293.545V294.256H226.705V293.545H229.645ZM227.586 299V292.793C227.586 292.48 227.659 292.22 227.806 292.011C227.953 291.803 228.143 291.647 228.377 291.543C228.612 291.438 228.859 291.386 229.12 291.386C229.326 291.386 229.494 291.403 229.624 291.436C229.754 291.469 229.851 291.5 229.915 291.528L229.674 292.253C229.631 292.239 229.572 292.221 229.496 292.2C229.423 292.178 229.326 292.168 229.205 292.168C228.928 292.168 228.728 292.237 228.605 292.377C228.484 292.517 228.424 292.722 228.424 292.991V299H227.586ZM230.82 299V293.545H231.629V294.369H231.686C231.786 294.099 231.966 293.88 232.226 293.712C232.486 293.544 232.78 293.46 233.107 293.46C233.168 293.46 233.245 293.461 233.338 293.464C233.43 293.466 233.5 293.47 233.547 293.474V294.327C233.519 294.32 233.454 294.309 233.352 294.295C233.252 294.278 233.147 294.27 233.036 294.27C232.771 294.27 232.534 294.326 232.325 294.437C232.119 294.546 231.956 294.697 231.835 294.891C231.717 295.083 231.658 295.302 231.658 295.548V299H230.82ZM236.59 299.114C236.098 299.114 235.666 298.996 235.294 298.762C234.925 298.528 234.636 298.2 234.428 297.778C234.222 297.357 234.119 296.865 234.119 296.301C234.119 295.733 234.222 295.237 234.428 294.813C234.636 294.389 234.925 294.06 235.294 293.826C235.666 293.592 236.098 293.474 236.59 293.474C237.083 293.474 237.514 293.592 237.883 293.826C238.255 294.06 238.544 294.389 238.749 294.813C238.958 295.237 239.062 295.733 239.062 296.301C239.062 296.865 238.958 297.357 238.749 297.778C238.544 298.2 238.255 298.528 237.883 298.762C237.514 298.996 237.083 299.114 236.59 299.114ZM236.59 298.361C236.964 298.361 237.272 298.265 237.514 298.073C237.755 297.881 237.934 297.629 238.05 297.317C238.166 297.004 238.224 296.666 238.224 296.301C238.224 295.937 238.166 295.597 238.05 295.282C237.934 294.967 237.755 294.713 237.514 294.518C237.272 294.324 236.964 294.227 236.59 294.227C236.216 294.227 235.909 294.324 235.667 294.518C235.426 294.713 235.247 294.967 235.131 295.282C235.015 295.597 234.957 295.937 234.957 296.301C234.957 296.666 235.015 297.004 235.131 297.317C235.247 297.629 235.426 297.881 235.667 298.073C235.909 298.265 236.216 298.361 236.59 298.361ZM240.341 299V293.545H241.151V294.398H241.222C241.336 294.107 241.519 293.88 241.772 293.719C242.026 293.556 242.33 293.474 242.685 293.474C243.045 293.474 243.344 293.556 243.583 293.719C243.825 293.88 244.013 294.107 244.148 294.398H244.205C244.345 294.116 244.554 293.892 244.833 293.727C245.113 293.558 245.448 293.474 245.838 293.474C246.326 293.474 246.725 293.627 247.035 293.933C247.345 294.236 247.5 294.708 247.5 295.349V299H246.662V295.349C246.662 294.947 246.552 294.659 246.332 294.487C246.112 294.314 245.853 294.227 245.554 294.227C245.171 294.227 244.874 294.343 244.663 294.575C244.452 294.805 244.347 295.096 244.347 295.449V299H243.495V295.264C243.495 294.954 243.394 294.704 243.193 294.515C242.992 294.323 242.732 294.227 242.415 294.227C242.197 294.227 241.994 294.285 241.804 294.401C241.617 294.517 241.466 294.678 241.35 294.884C241.236 295.088 241.179 295.323 241.179 295.591V299H240.341ZM252.385 301.045C252.243 301.045 252.116 301.034 252.005 301.01C251.894 300.989 251.817 300.967 251.774 300.946L251.987 300.207C252.191 300.259 252.371 300.278 252.527 300.264C252.683 300.25 252.822 300.18 252.942 300.055C253.066 299.932 253.178 299.732 253.28 299.455L253.436 299.028L251.419 293.545H252.328L253.834 297.892H253.891L255.396 293.545H256.305L253.99 299.795C253.886 300.077 253.757 300.31 253.603 300.495C253.449 300.682 253.27 300.821 253.067 300.911C252.866 301 252.638 301.045 252.385 301.045ZM259.432 299.114C258.94 299.114 258.508 298.996 258.136 298.762C257.767 298.528 257.478 298.2 257.27 297.778C257.064 297.357 256.961 296.865 256.961 296.301C256.961 295.733 257.064 295.237 257.27 294.813C257.478 294.389 257.767 294.06 258.136 293.826C258.508 293.592 258.94 293.474 259.432 293.474C259.925 293.474 260.355 293.592 260.725 293.826C261.096 294.06 261.385 294.389 261.591 294.813C261.8 295.237 261.904 295.733 261.904 296.301C261.904 296.865 261.8 297.357 261.591 297.778C261.385 298.2 261.096 298.528 260.725 298.762C260.355 298.996 259.925 299.114 259.432 299.114ZM259.432 298.361C259.806 298.361 260.114 298.265 260.355 298.073C260.597 297.881 260.776 297.629 260.892 297.317C261.008 297.004 261.066 296.666 261.066 296.301C261.066 295.937 261.008 295.597 260.892 295.282C260.776 294.967 260.597 294.713 260.355 294.518C260.114 294.324 259.806 294.227 259.432 294.227C259.058 294.227 258.75 294.324 258.509 294.518C258.267 294.713 258.089 294.967 257.973 295.282C257.857 295.597 257.799 295.937 257.799 296.301C257.799 296.666 257.857 297.004 257.973 297.317C258.089 297.629 258.267 297.881 258.509 298.073C258.75 298.265 259.058 298.361 259.432 298.361ZM266.621 296.77V293.545H267.459V299H266.621V298.077H266.564C266.436 298.354 266.237 298.589 265.967 298.783C265.697 298.975 265.356 299.071 264.944 299.071C264.604 299.071 264.3 298.996 264.035 298.847C263.77 298.696 263.562 298.469 263.41 298.165C263.259 297.86 263.183 297.475 263.183 297.011V293.545H264.021V296.955C264.021 297.352 264.132 297.67 264.355 297.906C264.58 298.143 264.866 298.261 265.214 298.261C265.423 298.261 265.635 298.208 265.85 298.102C266.068 297.995 266.25 297.832 266.397 297.612C266.546 297.391 266.621 297.111 266.621 296.77ZM268.994 299V293.545H269.803V294.369H269.86C269.96 294.099 270.139 293.88 270.4 293.712C270.66 293.544 270.954 293.46 271.281 293.46C271.342 293.46 271.419 293.461 271.511 293.464C271.604 293.466 271.674 293.47 271.721 293.474V294.327C271.692 294.32 271.627 294.309 271.526 294.295C271.426 294.278 271.321 294.27 271.21 294.27C270.944 294.27 270.708 294.326 270.499 294.437C270.293 294.546 270.13 294.697 270.009 294.891C269.891 295.083 269.832 295.302 269.832 295.548V299H268.994ZM118.372 311.128C118.027 311.128 117.713 311.063 117.431 310.933C117.149 310.8 116.926 310.609 116.76 310.361C116.594 310.11 116.511 309.807 116.511 309.452C116.511 309.139 116.573 308.886 116.696 308.692C116.819 308.495 116.984 308.341 117.19 308.23C117.396 308.119 117.623 308.036 117.871 307.982C118.122 307.925 118.375 307.88 118.628 307.847C118.959 307.804 119.228 307.772 119.434 307.751C119.642 307.727 119.794 307.688 119.888 307.634C119.986 307.579 120.034 307.484 120.034 307.349V307.321C120.034 306.971 119.938 306.698 119.746 306.504C119.557 306.31 119.269 306.213 118.884 306.213C118.483 306.213 118.17 306.301 117.942 306.476C117.715 306.651 117.555 306.838 117.463 307.037L116.668 306.753C116.81 306.421 116.999 306.163 117.236 305.979C117.475 305.792 117.735 305.661 118.017 305.588C118.301 305.512 118.58 305.474 118.855 305.474C119.03 305.474 119.232 305.496 119.459 305.538C119.688 305.579 119.91 305.663 120.123 305.79C120.338 305.918 120.517 306.111 120.659 306.369C120.801 306.627 120.872 306.973 120.872 307.406V311H120.034V310.261H119.991C119.935 310.38 119.84 310.506 119.707 310.641C119.575 310.776 119.398 310.891 119.178 310.986C118.958 311.08 118.689 311.128 118.372 311.128ZM118.5 310.375C118.831 310.375 119.111 310.31 119.338 310.18C119.568 310.049 119.741 309.881 119.857 309.675C119.975 309.469 120.034 309.253 120.034 309.026V308.259C119.999 308.301 119.92 308.34 119.8 308.376C119.681 308.409 119.544 308.438 119.388 308.464C119.234 308.488 119.084 308.509 118.937 308.528C118.792 308.545 118.675 308.559 118.585 308.571C118.367 308.599 118.164 308.646 117.974 308.71C117.787 308.771 117.636 308.865 117.52 308.99C117.406 309.113 117.349 309.281 117.349 309.494C117.349 309.786 117.457 310.006 117.673 310.155C117.89 310.302 118.166 310.375 118.5 310.375ZM124.618 311.114C124.106 311.114 123.666 310.993 123.297 310.751C122.927 310.51 122.643 310.177 122.444 309.754C122.246 309.33 122.146 308.846 122.146 308.301C122.146 307.747 122.248 307.258 122.452 306.835C122.657 306.408 122.944 306.076 123.311 305.837C123.68 305.595 124.111 305.474 124.604 305.474C124.987 305.474 125.333 305.545 125.64 305.688C125.948 305.83 126.2 306.028 126.397 306.284C126.593 306.54 126.715 306.838 126.763 307.179H125.925C125.861 306.93 125.719 306.71 125.498 306.518C125.281 306.324 124.987 306.227 124.618 306.227C124.291 306.227 124.005 306.312 123.758 306.483C123.515 306.651 123.324 306.889 123.187 307.197C123.052 307.502 122.984 307.861 122.984 308.273C122.984 308.694 123.05 309.061 123.183 309.374C123.318 309.686 123.507 309.929 123.751 310.102C123.997 310.274 124.286 310.361 124.618 310.361C124.836 310.361 125.033 310.323 125.211 310.247C125.388 310.171 125.539 310.062 125.662 309.92C125.785 309.778 125.872 309.608 125.925 309.409H126.763C126.715 309.731 126.598 310.021 126.411 310.279C126.226 310.535 125.981 310.738 125.676 310.89C125.373 311.039 125.02 311.114 124.618 311.114ZM130.204 311.114C129.692 311.114 129.252 310.993 128.883 310.751C128.513 310.51 128.229 310.177 128.03 309.754C127.831 309.33 127.732 308.846 127.732 308.301C127.732 307.747 127.834 307.258 128.037 306.835C128.243 306.408 128.53 306.076 128.897 305.837C129.266 305.595 129.697 305.474 130.189 305.474C130.573 305.474 130.919 305.545 131.226 305.688C131.534 305.83 131.786 306.028 131.983 306.284C132.179 306.54 132.301 306.838 132.349 307.179H131.51C131.447 306.93 131.305 306.71 131.084 306.518C130.867 306.324 130.573 306.227 130.204 306.227C129.877 306.227 129.59 306.312 129.344 306.483C129.1 306.651 128.91 306.889 128.773 307.197C128.638 307.502 128.57 307.861 128.57 308.273C128.57 308.694 128.636 309.061 128.769 309.374C128.904 309.686 129.093 309.929 129.337 310.102C129.583 310.274 129.872 310.361 130.204 310.361C130.421 310.361 130.619 310.323 130.797 310.247C130.974 310.171 131.125 310.062 131.248 309.92C131.371 309.778 131.458 309.608 131.51 309.409H132.349C132.301 309.731 132.184 310.021 131.997 310.279C131.812 310.535 131.567 310.738 131.262 310.89C130.959 311.039 130.606 311.114 130.204 311.114ZM135.79 311.114C135.297 311.114 134.865 310.996 134.493 310.762C134.124 310.528 133.835 310.2 133.627 309.778C133.421 309.357 133.318 308.865 133.318 308.301C133.318 307.733 133.421 307.237 133.627 306.813C133.835 306.389 134.124 306.06 134.493 305.826C134.865 305.592 135.297 305.474 135.79 305.474C136.282 305.474 136.713 305.592 137.082 305.826C137.454 306.06 137.743 306.389 137.949 306.813C138.157 307.237 138.261 307.733 138.261 308.301C138.261 308.865 138.157 309.357 137.949 309.778C137.743 310.2 137.454 310.528 137.082 310.762C136.713 310.996 136.282 311.114 135.79 311.114ZM135.79 310.361C136.164 310.361 136.471 310.265 136.713 310.073C136.954 309.881 137.133 309.629 137.249 309.317C137.365 309.004 137.423 308.666 137.423 308.301C137.423 307.937 137.365 307.597 137.249 307.282C137.133 306.967 136.954 306.713 136.713 306.518C136.471 306.324 136.164 306.227 135.79 306.227C135.416 306.227 135.108 306.324 134.866 306.518C134.625 306.713 134.446 306.967 134.33 307.282C134.214 307.597 134.156 307.937 134.156 308.301C134.156 308.666 134.214 309.004 134.33 309.317C134.446 309.629 134.625 309.881 134.866 310.073C135.108 310.265 135.416 310.361 135.79 310.361ZM142.978 308.77V305.545H143.816V311H142.978V310.077H142.921C142.793 310.354 142.594 310.589 142.325 310.783C142.055 310.975 141.714 311.071 141.302 311.071C140.961 311.071 140.658 310.996 140.393 310.847C140.128 310.696 139.919 310.469 139.768 310.165C139.616 309.86 139.54 309.475 139.54 309.011V305.545H140.379V308.955C140.379 309.352 140.49 309.67 140.712 309.906C140.937 310.143 141.224 310.261 141.572 310.261C141.78 310.261 141.992 310.208 142.207 310.102C142.425 309.995 142.607 309.832 142.754 309.612C142.903 309.391 142.978 309.111 142.978 308.77ZM146.189 307.719V311H145.351V305.545H146.161V306.398H146.232C146.36 306.121 146.554 305.898 146.814 305.73C147.075 305.56 147.411 305.474 147.823 305.474C148.192 305.474 148.515 305.55 148.792 305.702C149.069 305.851 149.285 306.078 149.438 306.384C149.592 306.687 149.669 307.07 149.669 307.534V311H148.831V307.591C148.831 307.162 148.72 306.829 148.497 306.589C148.275 306.348 147.969 306.227 147.581 306.227C147.314 306.227 147.075 306.285 146.864 306.401C146.655 306.517 146.491 306.687 146.37 306.909C146.249 307.132 146.189 307.402 146.189 307.719ZM153.573 305.545V306.256H150.746V305.545H153.573ZM151.57 304.239H152.408V309.438C152.408 309.674 152.442 309.852 152.511 309.97C152.582 310.086 152.672 310.164 152.781 310.205C152.892 310.242 153.009 310.261 153.132 310.261C153.225 310.261 153.301 310.257 153.36 310.247C153.419 310.235 153.466 310.226 153.502 310.219L153.672 310.972C153.615 310.993 153.536 311.014 153.434 311.036C153.333 311.059 153.203 311.071 153.047 311.071C152.81 311.071 152.578 311.02 152.351 310.918C152.126 310.817 151.939 310.661 151.79 310.453C151.643 310.245 151.57 309.982 151.57 309.665V304.239ZM157.646 311V305.545H158.484V311H157.646ZM158.072 304.636C157.909 304.636 157.768 304.581 157.65 304.469C157.533 304.358 157.475 304.224 157.475 304.068C157.475 303.912 157.533 303.778 157.65 303.667C157.768 303.556 157.909 303.5 158.072 303.5C158.235 303.5 158.375 303.556 158.491 303.667C158.609 303.778 158.669 303.912 158.669 304.068C158.669 304.224 158.609 304.358 158.491 304.469C158.375 304.581 158.235 304.636 158.072 304.636ZM163.883 306.767L163.13 306.98C163.082 306.855 163.013 306.733 162.92 306.614C162.83 306.494 162.707 306.394 162.551 306.316C162.395 306.238 162.195 306.199 161.951 306.199C161.617 306.199 161.339 306.276 161.116 306.43C160.896 306.581 160.786 306.774 160.786 307.009C160.786 307.217 160.862 307.381 161.013 307.502C161.165 307.623 161.402 307.723 161.724 307.804L162.533 308.003C163.021 308.121 163.384 308.302 163.623 308.546C163.863 308.788 163.982 309.099 163.982 309.48C163.982 309.793 163.892 310.072 163.712 310.318C163.535 310.564 163.286 310.759 162.966 310.901C162.647 311.043 162.275 311.114 161.851 311.114C161.295 311.114 160.835 310.993 160.47 310.751C160.105 310.51 159.875 310.157 159.778 309.693L160.573 309.494C160.649 309.788 160.792 310.008 161.003 310.155C161.216 310.302 161.494 310.375 161.837 310.375C162.228 310.375 162.538 310.292 162.768 310.126C163 309.958 163.116 309.757 163.116 309.523C163.116 309.333 163.049 309.175 162.917 309.047C162.784 308.917 162.581 308.82 162.306 308.756L161.397 308.543C160.897 308.424 160.53 308.241 160.296 307.992C160.064 307.741 159.948 307.428 159.948 307.051C159.948 306.743 160.034 306.471 160.207 306.234C160.382 305.998 160.62 305.812 160.921 305.677C161.224 305.542 161.567 305.474 161.951 305.474C162.491 305.474 162.914 305.593 163.222 305.83C163.532 306.066 163.752 306.379 163.883 306.767ZM171.915 303.727H173.453V308.45C173.453 308.981 173.326 309.445 173.073 309.842C172.822 310.24 172.47 310.55 172.018 310.773C171.566 310.993 171.039 311.103 170.438 311.103C169.834 311.103 169.306 310.993 168.854 310.773C168.402 310.55 168.05 310.24 167.8 309.842C167.549 309.445 167.423 308.981 167.423 308.45V303.727H168.961V308.319C168.961 308.596 169.021 308.842 169.142 309.058C169.265 309.273 169.438 309.442 169.66 309.565C169.883 309.688 170.142 309.75 170.438 309.75C170.736 309.75 170.996 309.688 171.216 309.565C171.438 309.442 171.61 309.273 171.731 309.058C171.854 308.842 171.915 308.596 171.915 308.319V303.727ZM178.663 305.819C178.635 305.532 178.513 305.31 178.298 305.151C178.082 304.993 177.79 304.913 177.42 304.913C177.17 304.913 176.958 304.949 176.785 305.02C176.612 305.089 176.479 305.184 176.387 305.308C176.297 305.431 176.252 305.57 176.252 305.727C176.247 305.857 176.275 305.97 176.334 306.067C176.395 306.165 176.479 306.249 176.586 306.32C176.692 306.388 176.816 306.449 176.955 306.501C177.095 306.55 177.244 306.593 177.403 306.629L178.056 306.785C178.373 306.856 178.665 306.951 178.93 307.069C179.195 307.187 179.424 307.333 179.619 307.506C179.813 307.679 179.963 307.882 180.07 308.116C180.179 308.351 180.234 308.62 180.237 308.923C180.234 309.368 180.121 309.754 179.896 310.08C179.673 310.405 179.351 310.657 178.93 310.837C178.511 311.014 178.005 311.103 177.413 311.103C176.826 311.103 176.315 311.013 175.879 310.833C175.446 310.653 175.107 310.387 174.864 310.034C174.622 309.679 174.496 309.24 174.484 308.717H175.972C175.988 308.96 176.058 309.164 176.181 309.327C176.307 309.488 176.473 309.61 176.682 309.693C176.893 309.774 177.13 309.814 177.396 309.814C177.656 309.814 177.882 309.776 178.074 309.7C178.268 309.625 178.418 309.519 178.525 309.384C178.631 309.249 178.685 309.094 178.685 308.919C178.685 308.756 178.636 308.618 178.539 308.507C178.444 308.396 178.305 308.301 178.12 308.223C177.938 308.145 177.714 308.074 177.449 308.01L176.657 307.811C176.044 307.662 175.56 307.429 175.205 307.112C174.849 306.794 174.673 306.367 174.675 305.83C174.673 305.389 174.79 305.004 175.027 304.675C175.266 304.346 175.594 304.089 176.011 303.905C176.427 303.72 176.901 303.628 177.431 303.628C177.971 303.628 178.442 303.72 178.844 303.905C179.249 304.089 179.564 304.346 179.789 304.675C180.014 305.004 180.13 305.386 180.137 305.819H178.663ZM185.986 311.909V302.818H186.568V311.909H185.986ZM187.531 305.819C187.502 305.532 187.38 305.31 187.165 305.151C186.949 304.993 186.657 304.913 186.288 304.913C186.037 304.913 185.825 304.949 185.652 305.02C185.479 305.089 185.347 305.184 185.254 305.308C185.164 305.431 185.119 305.57 185.119 305.727C185.115 305.857 185.142 305.97 185.201 306.067C185.263 306.165 185.347 306.249 185.453 306.32C185.56 306.388 185.683 306.449 185.822 306.501C185.962 306.55 186.111 306.593 186.27 306.629L186.923 306.785C187.241 306.856 187.532 306.951 187.797 307.069C188.062 307.187 188.292 307.333 188.486 307.506C188.68 307.679 188.83 307.882 188.937 308.116C189.046 308.351 189.101 308.62 189.104 308.923C189.101 309.368 188.988 309.754 188.763 310.08C188.54 310.405 188.218 310.657 187.797 310.837C187.378 311.014 186.872 311.103 186.281 311.103C185.693 311.103 185.182 311.013 184.746 310.833C184.313 310.653 183.975 310.387 183.731 310.034C183.489 309.679 183.363 309.24 183.351 308.717H184.839C184.855 308.96 184.925 309.164 185.048 309.327C185.174 309.488 185.341 309.61 185.549 309.693C185.76 309.774 185.998 309.814 186.263 309.814C186.523 309.814 186.749 309.776 186.941 309.7C187.135 309.625 187.286 309.519 187.392 309.384C187.499 309.249 187.552 309.094 187.552 308.919C187.552 308.756 187.503 308.618 187.406 308.507C187.312 308.396 187.172 308.301 186.987 308.223C186.805 308.145 186.581 308.074 186.316 308.01L185.524 307.811C184.911 307.662 184.427 307.429 184.072 307.112C183.717 306.794 183.54 306.367 183.543 305.83C183.54 305.389 183.657 305.004 183.894 304.675C184.133 304.346 184.461 304.089 184.878 303.905C185.295 303.72 185.768 303.628 186.298 303.628C186.838 303.628 187.309 303.72 187.712 303.905C188.116 304.089 188.431 304.346 188.656 304.675C188.881 305.004 188.997 305.386 189.004 305.819H187.531ZM193.259 303.727V311H191.722V305.187H191.679L190.014 306.231V304.867L191.814 303.727H193.259ZM197.839 311.16C197.229 311.157 196.703 311.007 196.263 310.709C195.825 310.411 195.487 309.978 195.251 309.413C195.016 308.847 194.9 308.166 194.903 307.371C194.903 306.578 195.02 305.902 195.254 305.343C195.491 304.784 195.828 304.359 196.266 304.068C196.707 303.775 197.231 303.628 197.839 303.628C198.448 303.628 198.971 303.775 199.409 304.068C199.849 304.362 200.188 304.788 200.425 305.347C200.661 305.903 200.779 306.578 200.776 307.371C200.776 308.169 200.658 308.85 200.421 309.416C200.187 309.982 199.851 310.414 199.413 310.712C198.975 311.011 198.45 311.16 197.839 311.16ZM197.839 309.885C198.256 309.885 198.589 309.675 198.837 309.256C199.086 308.837 199.209 308.209 199.207 307.371C199.207 306.819 199.15 306.36 199.036 305.993C198.925 305.626 198.766 305.35 198.56 305.165C198.357 304.981 198.116 304.888 197.839 304.888C197.425 304.888 197.094 305.096 196.845 305.51C196.597 305.924 196.471 306.545 196.469 307.371C196.469 307.929 196.524 308.396 196.636 308.77C196.749 309.142 196.909 309.421 197.115 309.608C197.321 309.793 197.562 309.885 197.839 309.885ZM201.763 309.722V308.511L204.799 303.727H205.843V305.403H205.225L203.311 308.433V308.489H207.626V309.722H201.763ZM205.253 311V309.352L205.282 308.816V303.727H206.724V311H205.253ZM209.412 311.092C209.177 311.092 208.976 311.009 208.808 310.844C208.642 310.676 208.559 310.474 208.559 310.24C208.559 310.008 208.642 309.809 208.808 309.643C208.976 309.478 209.177 309.395 209.412 309.395C209.639 309.395 209.838 309.478 210.008 309.643C210.179 309.809 210.264 310.008 210.264 310.24C210.264 310.396 210.224 310.54 210.143 310.67C210.065 310.798 209.962 310.901 209.834 310.979C209.706 311.054 209.566 311.092 209.412 311.092ZM213.987 303.628C214.361 303.628 214.72 303.691 215.066 303.816C215.414 303.942 215.724 304.142 215.996 304.416C216.271 304.691 216.488 305.055 216.646 305.51C216.807 305.962 216.889 306.517 216.891 307.175C216.891 307.793 216.821 308.345 216.682 308.83C216.545 309.313 216.347 309.724 216.089 310.062C215.831 310.401 215.519 310.659 215.155 310.837C214.79 311.012 214.383 311.099 213.933 311.099C213.448 311.099 213.019 311.006 212.648 310.819C212.276 310.629 211.977 310.373 211.749 310.048C211.524 309.722 211.388 309.355 211.341 308.947H212.857C212.916 309.213 213.041 309.419 213.23 309.565C213.42 309.71 213.654 309.782 213.933 309.782C214.407 309.782 214.767 309.576 215.013 309.164C215.259 308.75 215.383 308.183 215.386 307.463H215.336C215.227 307.676 215.08 307.86 214.896 308.013C214.711 308.165 214.499 308.282 214.26 308.365C214.023 308.448 213.771 308.489 213.504 308.489C213.075 308.489 212.693 308.389 212.357 308.188C212.02 307.986 211.755 307.709 211.561 307.357C211.367 307.004 211.27 306.601 211.27 306.149C211.268 305.661 211.38 305.227 211.607 304.846C211.835 304.465 212.152 304.166 212.559 303.951C212.969 303.733 213.444 303.625 213.987 303.628ZM213.997 304.835C213.758 304.835 213.545 304.892 213.358 305.006C213.173 305.119 213.027 305.272 212.918 305.464C212.811 305.656 212.759 305.87 212.761 306.107C212.761 306.346 212.813 306.561 212.918 306.753C213.024 306.942 213.169 307.094 213.351 307.207C213.536 307.319 213.746 307.374 213.983 307.374C214.161 307.374 214.325 307.341 214.477 307.275C214.628 307.209 214.759 307.117 214.871 307.001C214.984 306.883 215.073 306.747 215.137 306.593C215.201 306.439 215.233 306.276 215.233 306.103C215.231 305.873 215.176 305.663 215.07 305.471C214.963 305.279 214.816 305.125 214.629 305.009C214.442 304.893 214.232 304.835 213.997 304.835ZM220.808 311.16C220.197 311.157 219.672 311.007 219.232 310.709C218.794 310.411 218.456 309.978 218.219 309.413C217.985 308.847 217.869 308.166 217.871 307.371C217.871 306.578 217.989 305.902 218.223 305.343C218.46 304.784 218.797 304.359 219.235 304.068C219.675 303.775 220.2 303.628 220.808 303.628C221.417 303.628 221.94 303.775 222.378 304.068C222.818 304.362 223.157 304.788 223.393 305.347C223.63 305.903 223.747 306.578 223.745 307.371C223.745 308.169 223.627 308.85 223.39 309.416C223.156 309.982 222.819 310.414 222.381 310.712C221.943 311.011 221.419 311.16 220.808 311.16ZM220.808 309.885C221.225 309.885 221.558 309.675 221.806 309.256C222.055 308.837 222.178 308.209 222.175 307.371C222.175 306.819 222.119 306.36 222.005 305.993C221.894 305.626 221.735 305.35 221.529 305.165C221.326 304.981 221.085 304.888 220.808 304.888C220.394 304.888 220.063 305.096 219.814 305.51C219.565 305.924 219.44 306.545 219.438 307.371C219.438 307.929 219.493 308.396 219.604 308.77C219.718 309.142 219.878 309.421 220.084 309.608C220.29 309.793 220.531 309.885 220.808 309.885ZM225.63 311.057C225.455 311.057 225.304 310.994 225.179 310.869C225.053 310.743 224.991 310.593 224.991 310.418C224.991 310.242 225.053 310.092 225.179 309.967C225.304 309.841 225.455 309.778 225.63 309.778C225.805 309.778 225.955 309.841 226.081 309.967C226.206 310.092 226.269 310.242 226.269 310.418C226.269 310.534 226.239 310.64 226.18 310.737C226.123 310.834 226.046 310.912 225.949 310.972C225.855 311.028 225.748 311.057 225.63 311.057Z" fill="#36536B"/>
</g>
<defs>
<filter id="filter0_d_0_1" x="25.568" y="25.569" width="417.65" height="658.862" filterUnits="userSpaceOnUse" color-interpolation-filters="sRGB">
<feFlood flood-opacity="0" result="BackgroundImageFix"/>
<feColorMatrix in="SourceAlpha" type="matrix" values="0 0 0 0 0 0 0 0 0 0 0 0 0 0 0 0 0 0 127 0" result="hardAlpha"/>
<feOffset dx="25" dy="25"/>
<feGaussianBlur stdDeviation="40"/>
<feColorMatrix type="matrix" values="0 0 0 0 0.212302 0 0 0 0 0.32521 0 0 0 0 0.419299 0 0 0 0.300727 0"/>
<feBlend mode="normal" in2="BackgroundImageFix" result="effect1_dropShadow_0_1"/>
<feBlend mode="normal" in="SourceGraphic" in2="effect1_dropShadow_0_1" result="shape"/>
</filter>
<filter id="filter1_d_0_1" x="85" y="232" width="268" height="137" filterUnits="userSpaceOnUse" color-interpolation-filters="sRGB">
<feFlood flood-opacity="0" result="BackgroundImageFix"/>
<feColorMatrix in="SourceAlpha" type="matrix" values="0 0 0 0 0 0 0 0 0 0 0 0 0 0 0 0 0 0 127 0" result="hardAlpha"/>
<feOffset dx="10" dy="10"/>
<feGaussianBlur stdDeviation="12.5"/>
<feColorMatrix type="matrix" values="0 0 0 0 0.212302 0 0 0 0 0.32521 0 0 0 0 0.419299 0 0 0 0.25 0"/>
<feBlend mode="normal" in2="BackgroundImageFix" result="effect1_dropShadow_0_1"/>
<feBlend mode="normal" in="SourceGraphic" in2="effect1_dropShadow_0_1" result="shape"/>
</filter>
<linearGradient id="paint0_linear_0_1" x1="209.336" y1="80" x2="209.336" y2="92.324" gradientUnits="userSpaceOnUse">
<stop stop-color="#454545"/>
<stop offset="0.22628" stop-color="#999999"/>
<stop offset="1" stop-color="white"/>
</linearGradient>
<linearGradient id="paint1_linear_0_1" x1="338.103" y1="328.826" x2="328.642" y2="328.826" gradientUnits="userSpaceOnUse">
<stop stop-color="white" stop-opacity="0"/>
<stop offset="0.22218" stop-color="#BABABA"/>
<stop offset="0.54678" stop-color="white" stop-opacity="0"/>
<stop offset="1" stop-color="white" stop-opacity="0"/>
</linearGradient>
<linearGradient id="paint2_linear_0_1" x1="80.568" y1="328.826" x2="90.0438" y2="328.826" gradientUnits="userSpaceOnUse">
<stop stop-color="white" stop-opacity="0"/>
<stop offset="0.22218" stop-color="#BABABA"/>
<stop offset="0.54678" stop-color="white" stop-opacity="0"/>
<stop offset="1" stop-color="white" stop-opacity="0"/>
</linearGradient>
<linearGradient id="paint3_linear_0_1" x1="209.38" y1="92.444" x2="209.38" y2="552.951" gradientUnits="userSpaceOnUse">
<stop stop-color="#9CB6CD"/>
<stop offset="0.42056" stop-color="#9AB3CA"/>
<stop offset="0.71659" stop-color="#557496"/>
<stop offset="1" stop-color="#475178"/>
</linearGradient>
<linearGradient id="paint4_linear_0_1" x1="209.5" y1="92.444" x2="209.5" y2="553.822" gradientUnits="userSpaceOnUse">
<stop stop-color="#9CB6CD"/>
<stop offset="0.42056" stop-color="#9AB3CA"/>
<stop offset="0.71659" stop-color="#557496"/>
<stop offset="1" stop-color="#475178"/>
</linearGradient>
<clipPath id="clip0_0_1">
<rect width="419" height="660" fill="white"/>
</clipPath>
</defs>
</svg>
